<svg xmlns="http://www.w3.org/2000/svg" xmlns:xlink="http://www.w3.org/1999/xlink" width="85" height="85" viewBox="0 0 85 85">
  <defs>
    <clipPath id="clip-path">
      <path id="path4698" d="M0-682.665H85v85H0Z" transform="translate(0 682.665)"/>
    </clipPath>
  </defs>
  <g id="g4692" transform="translate(0 682.665)">
    <g id="g4694" transform="translate(0 -682.665)">
      <g id="g4696" clip-path="url(#clip-path)">
        <g id="g4702" transform="translate(1.661 37.406)">
          <path id="path4704" d="M-349.55-90.518h0a15.959,15.959,0,0,0-10.817-6.045A17.724,17.724,0,0,1-368.58-99.8a19.305,19.305,0,0,0-11.148-3.593h-.109a19.483,19.483,0,0,0-19.427,19.152v6.183l.034,0a19.487,19.487,0,0,1,19.393-18.259h.109a19.306,19.306,0,0,1,11.148,3.592,17.723,17.723,0,0,0,8.213,3.235A15.958,15.958,0,0,1-349.55-83.44h0a15.917,15.917,0,0,1,3.356,8.569l.054,0v-4.154c0-4.209-.851-8.239-3.41-11.5" transform="translate(399.263 103.392)" fill="#ff5d5d"/>
        </g>
        <g id="g4706" transform="translate(1.661 37.406)">
          <path id="path4708" d="M0-178.142v-6.183a19.483,19.483,0,0,1,19.427-19.152h.109a19.307,19.307,0,0,1,11.148,3.592,18.906,18.906,0,0,0,2.833,1.669" transform="translate(0 203.477)" fill="none" stroke="#000" stroke-linecap="round" stroke-linejoin="round" stroke-miterlimit="10" stroke-width="2"/>
        </g>
        <g id="g4710" transform="translate(23.137 19.415)">
          <path id="path4712" d="M-124.575-408.19l38.035-38.035-20.018-20.018-34.106,34.106a5.556,5.556,0,0,0,0,7.857Z" transform="translate(142.292 466.243)" fill="#72d8ff"/>
        </g>
        <g id="g4714" transform="translate(35.329 33.908)">
          <path id="path4716" d="M-306.288-38.853-344.323-.818l-5.526-5.526,38.035-38.035Z" transform="translate(349.848 44.379)" fill="#c9f3ff"/>
        </g>
        <g id="g4718" transform="translate(58.871 1.66)">
          <path id="path4720" d="M-162.273-56.984l-16.365,16.365-6.714-6.714L-168.987-63.7a4.747,4.747,0,0,1,6.714,0h0a4.747,4.747,0,0,1,0,6.714" transform="translate(185.352 65.088)" fill="#ffb954"/>
        </g>
        <g id="g4722" transform="translate(77.899 7.101)">
          <path id="path4724" d="M0,0Z" fill="#c9f3ff"/>
        </g>
        <g id="g4726" transform="translate(72.317 12.683)">
          <path id="path4728" d="M0,0Z" transform="translate(0)" fill="#c9f3ff"/>
        </g>
        <g id="g4730" transform="translate(66.734 18.266)">
          <path id="path4732" d="M0,0Z" transform="translate(0)" fill="#c9f3ff"/>
        </g>
        <g id="g4734" transform="translate(31.122 19.415)">
          <path id="path4736" d="M-164.964-311.655l24.305-24.306-20.018-20.018-27.749,27.748" transform="translate(188.425 355.979)" fill="none" stroke="#000" stroke-linecap="round" stroke-linejoin="round" stroke-miterlimit="10" stroke-width="2"/>
        </g>
        <g id="g4738" transform="translate(58.871 1.66)">
          <path id="path4740" d="M-162.273-56.984l-16.365,16.365-6.714-6.714L-168.987-63.7a4.747,4.747,0,0,1,6.714,0h0A4.747,4.747,0,0,1-162.273-56.984Z" transform="translate(185.352 65.088)" fill="none" stroke="#000" stroke-linecap="round" stroke-linejoin="round" stroke-miterlimit="10" stroke-width="2"/>
        </g>
        <g id="g4742" transform="translate(77.474 7.527)">
          <path id="path4744" d="M0,0H0" fill="none" stroke="#000" stroke-linecap="round" stroke-linejoin="round" stroke-miterlimit="10" stroke-width="2"/>
        </g>
        <g id="g4746" transform="translate(72.104 12.896)">
          <path id="path4748" d="M0,0H0" fill="none" stroke="#000" stroke-linecap="round" stroke-linejoin="round" stroke-miterlimit="10" stroke-width="2"/>
        </g>
        <g id="g4750" transform="translate(66.734 18.266)">
          <path id="path4752" d="M0,0H0" transform="translate(0)" fill="none" stroke="#000" stroke-linecap="round" stroke-linejoin="round" stroke-miterlimit="10" stroke-width="2"/>
        </g>
        <g id="g4754" transform="translate(51.087 33.908)">
          <path id="path4756" d="M0-156.634,22.276-178.91" transform="translate(0 178.91)" fill="none" stroke="#000" stroke-linecap="round" stroke-linejoin="round" stroke-miterlimit="10" stroke-width="2"/>
        </g>
        <g id="g4758" transform="translate(62.709 45.046)">
          <path id="path4760" d="M0,0H10.567" fill="none" stroke="#000" stroke-linecap="round" stroke-linejoin="round" stroke-miterlimit="10" stroke-width="2"/>
        </g>
        <g id="g4762" transform="translate(55.006 52.461)">
          <path id="path4764" d="M0,0H10.567" fill="none" stroke="#000" stroke-linecap="round" stroke-linejoin="round" stroke-miterlimit="10" stroke-width="2"/>
        </g>
        <g id="g4766" transform="translate(1.659 44.484)">
          <path id="path4768" d="M-136.6-273.209A19.288,19.288,0,0,1-150.438-279a19.293,19.293,0,0,1-5.593-13.917A19.483,19.483,0,0,1-136.6-312.065h.109a19.306,19.306,0,0,1,11.148,3.593,17.724,17.724,0,0,0,8.213,3.235,15.958,15.958,0,0,1,10.817,6.045h0a15.971,15.971,0,0,1,3.33,11.5,15.983,15.983,0,0,1-5.519,10.62,16.072,16.072,0,0,1-10.445,3.864h-.01c-2.094,0-8.192,0-12.873,0Z" transform="translate(156.033 312.065)" fill="#ffdfe0"/>
        </g>
        <g id="g4770" transform="translate(1.659 44.484)">
          <path id="path4772" d="M-151.023-273.208h-2.051a19.288,19.288,0,0,1-13.833-5.787,19.293,19.293,0,0,1-5.593-13.917,19.483,19.483,0,0,1,19.427-19.152h.109a19.305,19.305,0,0,1,11.148,3.593,17.724,17.724,0,0,0,8.213,3.235,15.958,15.958,0,0,1,10.817,6.045h0a15.972,15.972,0,0,1,3.33,11.5,15.983,15.983,0,0,1-5.519,10.62,16.072,16.072,0,0,1-10.445,3.864h-2.322" transform="translate(172.502 312.063)" fill="none" stroke="#000" stroke-linecap="round" stroke-linejoin="round" stroke-miterlimit="10" stroke-width="2"/>
        </g>
        <g id="g4774" transform="translate(7.596 54.175)">
          <path id="path4776" d="M-114.073-123.4c0-6.626-5.882-6.262-5.029-11a6.764,6.764,0,0,0-.514-3.987,4.305,4.305,0,0,0-7.1-1.177,12.987,12.987,0,0,0-3.576,8.85c0,7.9,5.133,11.175,9.625,12.526a5.144,5.144,0,0,0,6.6-4.946Z" transform="translate(130.297 140.945)" fill="#ff5d5d"/>
        </g>
        <g id="g4778" transform="translate(28.455 67.074)">
          <path id="path4780" d="M-135.775-20.813a2.15,2.15,0,0,0-2.457-2.585,8.589,8.589,0,0,0-3.03,1.249c-3.838,2.4-8.8.4-12.582-1.548a.658.658,0,0,0-.9.865,7.579,7.579,0,0,1,.74,4.56,19.178,19.178,0,0,1-.981,3.376,1.436,1.436,0,0,0,1.335,1.964h8.079a10,10,0,0,0,6.535-2.416,9.98,9.98,0,0,0,3.259-5.466" transform="translate(155.085 23.773)" fill="#ff5d5d"/>
        </g>
        <g id="g4782" transform="translate(34.265 56.184)">
          <path id="path4784" d="M-81.5-23.63a8.844,8.844,0,0,0-5.974-3.34l-.017,0a2.769,2.769,0,0,0-2.65,1.24l-2.839,4.383a.687.687,0,0,0,.3,1c1.387.62,4.465,1.748,6.376.568,2.528-1.562,4.314-1.793,6.153-1.433h0A8.755,8.755,0,0,0-81.5-23.63" transform="translate(93.09 26.991)" fill="#ff5d5d"/>
        </g>
        <g id="g4786" transform="translate(21.3 49.907)">
          <path id="path4788" d="M-57.032-16.2a12.407,12.407,0,0,0-7.151-2.3h-.027a.935.935,0,0,0-.6,1.649c1.481,1.248,2.449,2.7,2.26,4.139-.354,2.694-.587,4.179.567,5.476a.937.937,0,0,0,1.353.039,2.542,2.542,0,0,1,2.546-.531A.935.935,0,0,0-57-8.2l3.185-6.146v0a19.134,19.134,0,0,1-3.217-1.85" transform="translate(65.143 18.501)" fill="#ff5d5d"/>
        </g>
        <g id="g4790" transform="translate(7.596 54.175)">
          <path id="path4792" d="M-114.073-123.4c0-6.626-5.882-6.262-5.029-11a6.764,6.764,0,0,0-.514-3.987,4.305,4.305,0,0,0-7.1-1.177,12.987,12.987,0,0,0-3.576,8.85c0,7.9,5.133,11.175,9.625,12.526a5.144,5.144,0,0,0,6.6-4.946Z" transform="translate(130.297 140.945)" fill="none" stroke="#000" stroke-linecap="round" stroke-linejoin="round" stroke-miterlimit="10" stroke-width="2"/>
        </g>
        <g id="g4794" transform="translate(28.455 67.074)">
          <path id="path4796" d="M-135.775-20.813a2.15,2.15,0,0,0-2.457-2.585,8.589,8.589,0,0,0-3.03,1.249c-3.838,2.4-8.8.4-12.582-1.548a.658.658,0,0,0-.9.865,7.579,7.579,0,0,1,.74,4.56,19.178,19.178,0,0,1-.981,3.376,1.436,1.436,0,0,0,1.335,1.964h8.079a10,10,0,0,0,6.535-2.416A9.98,9.98,0,0,0-135.775-20.813Z" transform="translate(155.085 23.773)" fill="none" stroke="#000" stroke-linecap="round" stroke-linejoin="round" stroke-miterlimit="10" stroke-width="2"/>
        </g>
        <g id="g4798" transform="translate(34.265 56.184)">
          <path id="path4800" d="M-81.5-23.63a8.844,8.844,0,0,0-5.974-3.34l-.017,0a2.769,2.769,0,0,0-2.65,1.24l-2.839,4.383a.687.687,0,0,0,.3,1c1.387.62,4.465,1.748,6.376.568,2.528-1.562,4.314-1.793,6.153-1.433h0A8.755,8.755,0,0,0-81.5-23.63Z" transform="translate(93.09 26.991)" fill="none" stroke="#000" stroke-linecap="round" stroke-linejoin="round" stroke-miterlimit="10" stroke-width="2"/>
        </g>
        <g id="g4802" transform="translate(21.3 49.907)">
          <path id="path4804" d="M-57.032-16.2a12.407,12.407,0,0,0-7.151-2.3h-.027a.935.935,0,0,0-.6,1.649c1.481,1.248,2.449,2.7,2.26,4.139-.354,2.694-.587,4.179.567,5.476a.937.937,0,0,0,1.353.039,2.542,2.542,0,0,1,2.546-.531A.935.935,0,0,0-57-8.2l3.185-6.146v0A19.134,19.134,0,0,1-57.032-16.2Z" transform="translate(65.143 18.501)" fill="none" stroke="#000" stroke-linecap="round" stroke-linejoin="round" stroke-miterlimit="10" stroke-width="2"/>
        </g>
        <g id="g4806" transform="translate(51.718 24.507)">
          <path id="path4808" d="M0-80.651l11.47-11.47" transform="translate(0 92.121)" fill="none" stroke="#000" stroke-linecap="round" stroke-linejoin="round" stroke-miterlimit="10" stroke-width="2"/>
        </g>
        <g id="g4810" transform="translate(46.986 40.709)">
          <path id="path4812" d="M0,0H0" fill="none" stroke="#000" stroke-linecap="round" stroke-linejoin="round" stroke-miterlimit="10" stroke-width="2"/>
        </g>
        <g id="g4814" transform="translate(29.778 83.339)">
          <path id="path4816" d="M0,0H0" fill="none" stroke="#000" stroke-linecap="round" stroke-linejoin="round" stroke-miterlimit="10" stroke-width="2"/>
        </g>
      </g>
    </g>
  </g>
</svg>
