<svg xmlns="http://www.w3.org/2000/svg" xmlns:xlink="http://www.w3.org/1999/xlink" width="87" height="87" viewBox="0 0 87 87">
  <defs>
    <clipPath id="clip-path">
      <path id="path720" d="M0-682.665H57.233v57.233H0Z" transform="translate(0 682.665)"/>
    </clipPath>
  </defs>
  <g id="Grupo_1112569" data-name="Grupo 1112569" transform="translate(-314.051 -6211)">
    <circle id="Elipse_14887" data-name="Elipse 14887" cx="43.5" cy="43.5" r="43.5" transform="translate(314.051 6211)" fill="#66977b"/>
    <g id="g714" transform="translate(328.934 6908.548)">
      <g id="g716" transform="translate(0 -682.665)">
        <g id="g718" clip-path="url(#clip-path)">
          <g id="g724" transform="translate(2.726 7.474)">
            <path id="path726" d="M-22.606-435.611l-2.069,2.069,3.7,3.7a7.158,7.158,0,0,0,5.661,2.213,60.058,60.058,0,0,0,38.739-17.344,19.023,19.023,0,0,0,0-26.9l-3.595-3.595Z" transform="translate(24.675 475.474)" fill="#ffe0b7"/>
          </g>
          <g id="g728" transform="translate(0.838 1.902)">
            <path id="path730" d="M-506.94-60.887a19.023,19.023,0,0,0-26.9,0c-12.8,12.8-1.088,15.68-14.771,29.363l-2.607,2.607a7.2,7.2,0,0,0-2.109,5.091,7.2,7.2,0,0,0,7.651,7.186A60.058,60.058,0,0,0-506.94-33.984a19.023,19.023,0,0,0,0-26.9" transform="translate(553.331 66.459)" fill="#fffcdc"/>
          </g>
          <g id="g732" transform="translate(5.31 6.374)">
            <path id="path734" d="M-29.6-446.851a2.722,2.722,0,0,1-2.708-2.73,2.711,2.711,0,0,1,.8-1.929l2.607-2.607c8.094-8.094,8.611-13.562,9.026-17.956A16.006,16.006,0,0,1-18.889-477a20.906,20.906,0,0,1,4.762-6.484,14.457,14.457,0,0,1,10.29-4.262h0a14.457,14.457,0,0,1,10.29,4.262,14.457,14.457,0,0,1,4.262,10.29A14.456,14.456,0,0,1,6.453-462.9a54.2,54.2,0,0,1-19.41,12.513,58.215,58.215,0,0,1-16.456,3.531c-.061,0-.122.006-.183.006" transform="translate(32.304 487.743)" fill="#ff5f7f"/>
          </g>
          <g id="g736" transform="translate(5.349 9.578)">
            <path id="path738" d="M-423.1-11.556a14.818,14.818,0,0,0-1.178-1.057,14.441,14.441,0,0,1,3.2,9.112,14.457,14.457,0,0,1-4.262,10.29A54.2,54.2,0,0,1-444.748,19.3,58.219,58.219,0,0,1-461.2,22.832c-.061,0-.122.006-.183.006a2.692,2.692,0,0,1-.434-.035,2.719,2.719,0,0,0,2.669,2.271c.06,0,.122,0,.183-.006a58.218,58.218,0,0,0,16.456-3.531A54.2,54.2,0,0,0-423.1,9.024a14.457,14.457,0,0,0,4.262-10.29,14.457,14.457,0,0,0-4.262-10.29" transform="translate(461.82 12.613)" fill="#e3244c"/>
          </g>
          <g id="g740" transform="translate(30.113 15.582)">
            <path id="path742" d="M-84.022-84.022a4.5,4.5,0,0,1-6.37,0,4.5,4.5,0,0,1,0-6.37,4.5,4.5,0,0,1,6.37,0,4.5,4.5,0,0,1,0,6.37" transform="translate(91.711 91.711)" fill="#fffcdc"/>
          </g>
          <g id="g744" transform="translate(5.31 6.374)">
            <path id="path746" d="M-29.594-446.851a2.722,2.722,0,0,1-2.708-2.73,2.711,2.711,0,0,1,.8-1.929l2.607-2.607c8.094-8.094,8.611-13.562,9.026-17.956A16.006,16.006,0,0,1-18.887-477a20.9,20.9,0,0,1,4.762-6.484,14.457,14.457,0,0,1,10.29-4.262h0a14.457,14.457,0,0,1,10.29,4.262,14.457,14.457,0,0,1,4.262,10.29A14.457,14.457,0,0,1,6.455-462.9a54.2,54.2,0,0,1-19.41,12.513,58.215,58.215,0,0,1-16.456,3.531C-29.473-446.853-29.534-446.851-29.594-446.851Z" transform="translate(32.303 487.743)" fill="none" stroke="#000" stroke-linecap="round" stroke-linejoin="round" stroke-miterlimit="10" stroke-width="1"/>
          </g>
          <g id="g748" transform="translate(30.113 15.582)">
            <path id="path750" d="M-84.022-84.022a4.5,4.5,0,0,1-6.37,0,4.5,4.5,0,0,1,0-6.37,4.5,4.5,0,0,1,6.37,0A4.5,4.5,0,0,1-84.022-84.022Z" transform="translate(91.711 91.711)" fill="none" stroke="#000" stroke-linecap="round" stroke-linejoin="round" stroke-miterlimit="10" stroke-width="1"/>
          </g>
          <g id="g752" transform="translate(15.305 39.286)">
            <path id="path754" d="M0,0,1.134,1.134" fill="none" stroke="#000" stroke-linecap="round" stroke-linejoin="round" stroke-miterlimit="10" stroke-width="1"/>
          </g>
          <g id="g756" transform="translate(27.109 27.482)">
            <path id="path758" d="M0,0,1.134,1.134" fill="none" stroke="#000" stroke-linecap="round" stroke-linejoin="round" stroke-miterlimit="10" stroke-width="1"/>
          </g>
          <g id="g760" transform="translate(20.751 32.928)">
            <path id="path762" d="M0-34.009a2.91,2.91,0,0,0,2.265-.847,2.911,2.911,0,0,0,.847-2.265" transform="translate(0 37.121)" fill="none" stroke="#000" stroke-linecap="round" stroke-linejoin="round" stroke-miterlimit="10" stroke-width="1"/>
          </g>
          <g id="g764" transform="translate(2.945 7.474)">
            <path id="path766" d="M-470.822-306.727a60.142,60.142,0,0,1-37.54,16.178,7.153,7.153,0,0,1-5.545-2.1l3.479,3.478a7.157,7.157,0,0,0,5.661,2.213A60.057,60.057,0,0,0-466.028-304.3a19.023,19.023,0,0,0,0-26.9l-3.595-3.595a19.024,19.024,0,0,1,1.118,25.683" transform="translate(513.907 334.795)" fill="none" stroke="#000" stroke-linecap="round" stroke-linejoin="round" stroke-miterlimit="10" stroke-width="1"/>
          </g>
          <g id="g768" transform="translate(2.726 49.401)">
            <path id="path770" d="M-.055,0-.06,0,.055.12C.018.081-.018.04-.055,0Z" transform="translate(0.06)" fill="none" stroke="#000" stroke-linecap="round" stroke-linejoin="round" stroke-miterlimit="10" stroke-width="1"/>
          </g>
          <g id="g772" transform="translate(11.162 1.902)">
            <path id="path774" d="M-406.347-341.541a19.024,19.024,0,0,0-1.118-25.683,19.023,19.023,0,0,0-26.9,0c-10.2,10.2-4.831,14.1-9.164,22.2" transform="translate(443.532 372.795)" fill="none" stroke="#000" stroke-linecap="round" stroke-linejoin="round" stroke-miterlimit="10" stroke-width="1"/>
          </g>
          <g id="g776" transform="translate(0.838 32.485)">
            <path id="path778" d="M-93.165,0a38.99,38.99,0,0,1-3.81,4.352l-2.607,2.607a7.2,7.2,0,0,0-2.109,5.091,7.2,7.2,0,0,0,7.651,7.186A60.142,60.142,0,0,0-56.5,3.058" transform="translate(101.69)" fill="none" stroke="#000" stroke-linecap="round" stroke-linejoin="round" stroke-miterlimit="10" stroke-width="1"/>
          </g>
        </g>
      </g>
    </g>
  </g>
</svg>
