<svg xmlns="http://www.w3.org/2000/svg" xmlns:xlink="http://www.w3.org/1999/xlink" width="74" height="70" viewBox="0 0 74 70">
  <defs>
    <clipPath id="clip-path">
      <path id="path8814" d="M0-682.665H64.67V-618H0Z" transform="translate(0 682.665)"/>
    </clipPath>
  </defs>
  <g id="Grupo_1112605" data-name="Grupo 1112605" transform="translate(-205.051 -7359)">
    <g id="g8808" transform="translate(210.051 7362)">
      <g id="g8810">
        <g id="g8812" clip-path="url(#clip-path)">
          <g id="g8818" transform="translate(0.948 3.611)">
            <path id="path8820" d="M-127,0a13.291,13.291,0,0,0-13.29,13.291A13.291,13.291,0,0,0-127,26.585a13.292,13.292,0,0,0,13.294-13.294A13.291,13.291,0,0,0-127,0" transform="translate(140.292 0)" fill="#9fd4fe" fill-rule="evenodd"/>
          </g>
          <g id="g8822" transform="translate(10.4 3.618)">
            <path id="path8824" d="M-131.245-121.634a13.291,13.291,0,0,1-13.29,13.294c-.15,0-.3,0-.444-.007a13.337,13.337,0,0,0,3.838.562,13.292,13.292,0,0,0,13.294-13.294,13.291,13.291,0,0,0-12.85-13.283,13.292,13.292,0,0,1,9.452,12.728" transform="translate(144.98 134.362)" fill="#85beef" fill-rule="evenodd"/>
          </g>
          <g id="g8826" transform="translate(26.633 0.947)">
            <path id="path8828" d="M-56.487-75.41v29.75A13.792,13.792,0,0,0-62.4-34.332,13.806,13.806,0,0,0-48.593-20.526,13.806,13.806,0,0,0-34.787-34.332,13.792,13.792,0,0,0-40.7-45.66V-75.41A7.916,7.916,0,0,0-48.593-83.3a7.916,7.916,0,0,0-7.895,7.891" transform="translate(62.399 83.301)" fill="#eff6ff" fill-rule="evenodd"/>
          </g>
          <g id="g8830" transform="translate(31.939 32.981)">
            <path id="path8832" d="M-34.83-95.152a8.482,8.482,0,0,0-3.645,6.978,8.5,8.5,0,0,0,8.5,8.5,8.5,8.5,0,0,0,8.5-8.5,8.488,8.488,0,0,0-3.641-6.978l-2.27-1.583v-6.953l-2.588-1.421-2.589,1.421v6.953Z" transform="translate(38.475 105.109)" fill="#eb5468" fill-rule="evenodd"/>
          </g>
          <g id="g8834" transform="translate(37.722 0.947)">
            <path id="path8836" d="M-25.969,0a7.874,7.874,0,0,0-2.718.483A7.92,7.92,0,0,1-21.2,8.367v29.75a13.784,13.784,0,0,1,5.915,11.325A13.812,13.812,0,0,1-25.454,62.765a13.806,13.806,0,0,0,13.29-13.8,13.792,13.792,0,0,0-5.911-11.328V7.891A7.916,7.916,0,0,0-25.969,0" transform="translate(28.687)" fill="#d9eeff" fill-rule="evenodd"/>
          </g>
          <g id="g8838" transform="translate(40.439 32.981)">
            <path id="path8840" d="M0-20.426v6.953l2.27,1.582A8.488,8.488,0,0,1,5.911-4.912,8.494,8.494,0,0,1,.949,2.818,8.495,8.495,0,0,0,8.5-5.629a8.488,8.488,0,0,0-3.641-6.978l-2.27-1.583v-6.953L0-22.564Z" transform="translate(0 22.564)" fill="#e5384f" fill-rule="evenodd"/>
          </g>
          <g id="g8842" transform="translate(37.85 6.25)">
            <path id="path8844" d="M0-24.737V.827H5.177V-24.737a2.611,2.611,0,0,0-2.588-2.589A2.611,2.611,0,0,0,0-24.737" transform="translate(0 27.325)" fill="#9fd4fe" fill-rule="evenodd"/>
          </g>
          <g id="g8846" transform="translate(38.563 6.25)">
            <path id="path8848" d="M-17.929-31.581V-6.732h2.588V-32.3a2.611,2.611,0,0,0-2.588-2.589,2.583,2.583,0,0,0-1.876.82,2.614,2.614,0,0,1,1.876,2.485" transform="translate(19.805 34.885)" fill="#85beef" fill-rule="evenodd"/>
          </g>
          <g id="g8850" transform="translate(26.633 0.947)">
            <path id="path8852" d="M-207.371-209.258v15.743a13.791,13.791,0,0,1,5.911,11.328,13.806,13.806,0,0,1-13.806,13.806,13.806,13.806,0,0,1-13.806-13.806,13.791,13.791,0,0,1,5.911-11.328v-29.75a7.916,7.916,0,0,1,7.895-7.891,7.916,7.916,0,0,1,7.895,7.891v9.613" transform="translate(229.071 231.155)" fill="none" stroke="#000" stroke-linecap="round" stroke-linejoin="round" stroke-miterlimit="10" stroke-width="2"/>
          </g>
          <g id="g8854" transform="translate(31.939 6.25)">
            <path id="path8856" d="M-56.487-223.7V-212l-2.266,1.583a8.482,8.482,0,0,0-3.645,6.978,8.5,8.5,0,0,0,8.5,8.5,8.5,8.5,0,0,0,8.5-8.5,8.488,8.488,0,0,0-3.641-6.978L-51.31-212v-32.517A2.611,2.611,0,0,0-53.9-247.1a2.611,2.611,0,0,0-2.589,2.589V-228.4" transform="translate(62.399 247.105)" fill="none" stroke="#000" stroke-linecap="round" stroke-linejoin="round" stroke-miterlimit="10" stroke-width="2"/>
          </g>
          <g id="g8858" transform="translate(37.85 34.403)">
            <path id="path8860" d="M0,0H5.177" fill="none" stroke="#000" stroke-linecap="round" stroke-linejoin="round" stroke-miterlimit="10" stroke-width="2"/>
          </g>
          <g id="g8862" transform="translate(0.948 3.611)">
            <path id="path8864" d="M-127-254.045a13.32,13.32,0,0,0,13.294-13.294A13.317,13.317,0,0,0-127-280.63a13.314,13.314,0,0,0-13.29,13.291A13.317,13.317,0,0,0-127-254.045Z" transform="translate(140.292 280.63)" fill="none" stroke="#000" stroke-linecap="round" stroke-linejoin="round" stroke-miterlimit="10" stroke-width="2"/>
          </g>
          <g id="g8866" transform="translate(14.238 10.751)">
            <path id="path8868" d="M0,0V12.306" fill="none" stroke="#000" stroke-linecap="round" stroke-linejoin="round" stroke-miterlimit="10" stroke-width="2"/>
          </g>
          <g id="g8870" transform="translate(12.001 8.509)">
            <path id="path8872" d="M0,0,2.238,2.241" fill="none" stroke="#000" stroke-linecap="round" stroke-linejoin="round" stroke-miterlimit="10" stroke-width="2"/>
          </g>
          <g id="g8874" transform="translate(14.238 8.509)">
            <path id="path8876" d="M-21.419,0-23.66,2.241" transform="translate(23.66)" fill="none" stroke="#000" stroke-linecap="round" stroke-linejoin="round" stroke-miterlimit="10" stroke-width="2"/>
          </g>
          <g id="g8878" transform="translate(12.001 23.056)">
            <path id="path8880" d="M0-21.385l2.238-2.238" transform="translate(0 23.623)" fill="none" stroke="#000" stroke-linecap="round" stroke-linejoin="round" stroke-miterlimit="10" stroke-width="2"/>
          </g>
          <g id="g8882" transform="translate(14.238 23.056)">
            <path id="path8884" d="M-21.419-21.385l-2.241-2.238" transform="translate(23.66 23.623)" fill="none" stroke="#000" stroke-linecap="round" stroke-linejoin="round" stroke-miterlimit="10" stroke-width="2"/>
          </g>
          <g id="g8886" transform="translate(8.911 13.826)">
            <path id="path8888" d="M0,0,10.659,6.155" fill="none" stroke="#000" stroke-linecap="round" stroke-linejoin="round" stroke-miterlimit="10" stroke-width="2"/>
          </g>
          <g id="g8890" transform="translate(5.853 13.826)">
            <path id="path8892" d="M0-7.835l3.058-.82" transform="translate(0 8.655)" fill="none" stroke="#000" stroke-linecap="round" stroke-linejoin="round" stroke-miterlimit="10" stroke-width="2"/>
          </g>
          <g id="g8894" transform="translate(8.091 10.768)">
            <path id="path8896" d="M0,0,.82,3.058" fill="none" stroke="#000" stroke-linecap="round" stroke-linejoin="round" stroke-miterlimit="10" stroke-width="2"/>
          </g>
          <g id="g8898" transform="translate(19.569 19.981)">
            <path id="path8900" d="M-7.8-29.22l-.816-3.058" transform="translate(8.617 32.277)" fill="none" stroke="#000" stroke-linecap="round" stroke-linejoin="round" stroke-miterlimit="10" stroke-width="2"/>
          </g>
          <g id="g8902" transform="translate(19.569 19.161)">
            <path id="path8904" d="M-29.22,0l-3.058.82" transform="translate(32.277)" fill="none" stroke="#000" stroke-linecap="round" stroke-linejoin="round" stroke-miterlimit="10" stroke-width="2"/>
          </g>
          <g id="g8906" transform="translate(8.911 13.826)">
            <path id="path8908" d="M-101.855,0l-10.659,6.155" transform="translate(112.513)" fill="none" stroke="#000" stroke-linecap="round" stroke-linejoin="round" stroke-miterlimit="10" stroke-width="2"/>
          </g>
          <g id="g8910" transform="translate(19.569 13.826)">
            <path id="path8912" d="M-29.22-7.835l-3.058-.82" transform="translate(32.277 8.655)" fill="none" stroke="#000" stroke-linecap="round" stroke-linejoin="round" stroke-miterlimit="10" stroke-width="2"/>
          </g>
          <g id="g8914" transform="translate(19.569 10.768)">
            <path id="path8916" d="M-7.8,0l-.816,3.058" transform="translate(8.617)" fill="none" stroke="#000" stroke-linecap="round" stroke-linejoin="round" stroke-miterlimit="10" stroke-width="2"/>
          </g>
          <g id="g8918" transform="translate(8.091 19.981)">
            <path id="path8920" d="M0-29.22l.82-3.058" transform="translate(0 32.277)" fill="none" stroke="#000" stroke-linecap="round" stroke-linejoin="round" stroke-miterlimit="10" stroke-width="2"/>
          </g>
          <g id="g8922" transform="translate(5.853 19.161)">
            <path id="path8924" d="M0,0,3.058.82" fill="none" stroke="#000" stroke-linecap="round" stroke-linejoin="round" stroke-miterlimit="10" stroke-width="2"/>
          </g>
          <g id="g8926" transform="translate(13.68 38.864)">
            <path id="path8928" d="M-65.691-7.185a4.42,4.42,0,0,0-2.467-.752A4.409,4.409,0,0,0-72.565-3.53,4.409,4.409,0,0,0-68.158.878,3.546,3.546,0,0,0-65.737,0a3.489,3.489,0,0,0,.358-.369" transform="translate(72.565 7.937)" fill="none" stroke="#000" stroke-linecap="round" stroke-linejoin="round" stroke-miterlimit="10" stroke-width="2"/>
          </g>
          <g id="g8930" transform="translate(11.861 37.245)">
            <path id="path8932" d="M-.034,0l0,.007" transform="translate(0.037)" fill="none" stroke="#000" stroke-linecap="round" stroke-linejoin="round" stroke-miterlimit="10" stroke-width="2"/>
          </g>
          <g id="g8934" transform="translate(54.656 6.25)">
            <path id="path8936" d="M0,0H9.065" fill="none" stroke="#000" stroke-linecap="round" stroke-linejoin="round" stroke-miterlimit="10" stroke-width="2"/>
          </g>
          <g id="g8938" transform="translate(54.656 11.946)">
            <path id="path8940" d="M0,0H4.533" fill="none" stroke="#000" stroke-linecap="round" stroke-linejoin="round" stroke-miterlimit="10" stroke-width="2"/>
          </g>
          <g id="g8942" transform="translate(54.656 17.639)">
            <path id="path8944" d="M0,0H9.065" fill="none" stroke="#000" stroke-linecap="round" stroke-linejoin="round" stroke-miterlimit="10" stroke-width="2"/>
          </g>
          <g id="g8946" transform="translate(54.656 23.332)">
            <path id="path8948" d="M0,0H4.533" fill="none" stroke="#000" stroke-linecap="round" stroke-linejoin="round" stroke-miterlimit="10" stroke-width="2"/>
          </g>
          <g id="g8950" transform="translate(54.656 29.025)">
            <path id="path8952" d="M0,0H9.065" fill="none" stroke="#000" stroke-linecap="round" stroke-linejoin="round" stroke-miterlimit="10" stroke-width="2"/>
          </g>
          <g id="g8954" transform="translate(54.656 34.721)">
            <path id="path8956" d="M0,0H4.533" fill="none" stroke="#000" stroke-linecap="round" stroke-linejoin="round" stroke-miterlimit="10" stroke-width="2"/>
          </g>
        </g>
      </g>
    </g>
    <rect id="Rectángulo_402774" data-name="Rectángulo 402774" width="74" height="70" transform="translate(205.051 7359)" fill="none"/>
  </g>
</svg>
