<svg xmlns="http://www.w3.org/2000/svg" width="74.67" height="70" viewBox="0 0 74.67 70">
  <g id="Grupo_1112604" data-name="Grupo 1112604" transform="translate(-786.051 -7446)">
    <rect id="Rectángulo_402775" data-name="Rectángulo 402775" width="74" height="70" transform="translate(786.051 7446)" fill="none"/>
    <g id="Grupo_1112586" data-name="Grupo 1112586" transform="translate(786.051 7450)">
      <g id="Grupo_1112486" data-name="Grupo 1112486" transform="translate(1.094 1.097)">
        <path id="Trazado_903697" data-name="Trazado 903697" d="M379.14,294.791h-7.051l-8.361,10.236H379.14a5.118,5.118,0,0,0,0-10.236Z" transform="translate(-311.777 -259.219)" fill="#ffddce"/>
        <path id="Trazado_903698" data-name="Trazado 903698" d="M384.261,319.472a5.118,5.118,0,0,1-5.118,5.118H363.731l2.905-3.556h12.506a5.121,5.121,0,0,0,4.8-3.339,5.1,5.1,0,0,1,.317,1.777Z" transform="translate(-311.779 -278.782)" fill="#ffcbbe"/>
        <path id="Trazado_903699" data-name="Trazado 903699" d="M374.078,224.6h-7.051l-8.361,10.236h15.412a5.118,5.118,0,0,0,0-10.236Z" transform="translate(-307.453 -199.269)" fill="#ffddce"/>
        <path id="Trazado_903700" data-name="Trazado 903700" d="M379.2,249.285a5.118,5.118,0,0,1-5.118,5.118H358.669l2.905-3.556H374.08a5.121,5.121,0,0,0,4.8-3.339A5.1,5.1,0,0,1,379.2,249.285Z" transform="translate(-307.455 -218.831)" fill="#ffcbbe"/>
        <path id="Trazado_903701" data-name="Trazado 903701" d="M348.772,154.418h-7.051l-8.361,10.236h15.412a5.118,5.118,0,0,0,0-10.236Z" transform="translate(-285.837 -139.318)" fill="#ffddce"/>
        <path id="Trazado_903702" data-name="Trazado 903702" d="M353.892,179.1a5.118,5.118,0,0,1-5.118,5.118H333.362l2.905-3.556h12.506a5.121,5.121,0,0,0,4.8-3.339A5.1,5.1,0,0,1,353.892,179.1Z" transform="translate(-285.839 -158.88)" fill="#ffcbbe"/>
        <path id="Trazado_903703" data-name="Trazado 903703" d="M98.912,110.873H75.153L64.74,101.835,62.323,91.5l4.421-12.191,4.862-11.438a14.708,14.708,0,0,1,7.212-7.528l8.913-4.246a5.844,5.844,0,0,1,8.07,3.453,0,0,0,0,1,0,0,5.847,5.847,0,0,1-.614,4.946l-3.672,5.814,5.452,29.9L98.8,110.272Z" transform="translate(-54.328 -54.848)" fill="#ffddce"/>
        <path id="Trazado_903704" data-name="Trazado 903704" d="M153.566,357.932c-.111.2-.22.4-.329.6h-23.32l-3.48-13.063c4.715,2.105,16.3,6.385,25.294,2.4a16.407,16.407,0,0,0,1.944-1.022C161.237,342.191,157.273,351.108,153.566,357.932Z" transform="translate(-109.092 -302.507)" fill="#ffcbbe"/>
        <path id="Trazado_903705" data-name="Trazado 903705" d="M121.693,59.547c-1.423-2.309-7.571.269-11.579,2.393-3.67,1.944-13.516,14.468-14.617,28.1l-2.86-10.737L97.5,67.868a14.708,14.708,0,0,1,7.212-7.528l8.913-4.246a5.844,5.844,0,0,1,8.07,3.453Z" transform="translate(-80.221 -54.848)" fill="#ffcbbe"/>
        <g id="Grupo_1112484" data-name="Grupo 1112484" transform="translate(44.764 0)">
          <path id="Trazado_903706" data-name="Trazado 903706" d="M0,0H8.1V8.853H0Z" transform="translate(5.182 4.722) rotate(17.928)" fill="#ffd064"/>
          <path id="Trazado_903707" data-name="Trazado 903707" d="M328.83,61.089q-6.159-1.81-12.212-3.949a3.222,3.222,0,0,1-2.018-4l.019-.06a3.222,3.222,0,0,1,3.979-2.062q6.159,1.81,12.212,3.949a3.222,3.222,0,0,1,2.018,4l-.019.06A3.222,3.222,0,0,1,328.83,61.089Z" transform="translate(-314.449 -50.882)" fill="#f6e266"/>
          <path id="Trazado_903708" data-name="Trazado 903708" d="M322.036,58.981q-2.72-.888-5.419-1.842a3.222,3.222,0,0,1-2.018-4l.019-.06a3.222,3.222,0,0,1,3.979-2.063q2.748.809,5.472,1.68a3.335,3.335,0,0,0-3.745,2.227l-.02.062A3.335,3.335,0,0,0,322.036,58.981Z" transform="translate(-314.448 -50.881)" fill="#ffd064"/>
        </g>
        <path id="Trazado_903709" data-name="Trazado 903709" d="M328.622,364.851h-7.051l-8.361,10.236h15.412a5.118,5.118,0,0,0,0-10.236Z" transform="translate(-268.626 -319.062)" fill="#ffddce"/>
        <path id="Trazado_903710" data-name="Trazado 903710" d="M333.743,389.531a5.118,5.118,0,0,1-5.118,5.118H313.213l2.905-3.556h12.506a5.121,5.121,0,0,0,4.8-3.339A5.1,5.1,0,0,1,333.743,389.531Z" transform="translate(-268.629 -338.624)" fill="#ffcbbe"/>
        <g id="Grupo_1112485" data-name="Grupo 1112485" transform="translate(21.84 10.537)">
          <circle id="Elipse_14888" data-name="Elipse 14888" cx="22.744" cy="22.744" r="22.744" transform="translate(0 0)" fill="#f6e266"/>
          <path id="Trazado_903711" data-name="Trazado 903711" d="M181.461,168.573c-.483.029-.97.046-1.46.046a22.744,22.744,0,1,1,0-45.488c.49,0,.977.016,1.46.046a22.746,22.746,0,0,0,0,45.4Z" transform="translate(-157.257 -123.13)" fill="#ffd064"/>
          <circle id="Elipse_14889" data-name="Elipse 14889" cx="17.383" cy="17.383" r="17.383" transform="translate(5.361 5.361)" fill="#d3effb"/>
          <path id="Trazado_903712" data-name="Trazado 903712" d="M214.87,194.4a17.384,17.384,0,1,1,0-34.262,17.386,17.386,0,0,0,0,34.262Z" transform="translate(-189.088 -154.526)" fill="#9dc6fb"/>
          <path id="Trazado_903713" data-name="Trazado 903713" d="M300.24,235.211A2.214,2.214,0,0,1,298.026,233v-5.654a2.214,2.214,0,1,1,4.429,0V233A2.214,2.214,0,0,1,300.24,235.211Z" transform="translate(-277.496 -210.253)" fill="#2b4d66"/>
        </g>
        <path id="Trazado_903714" data-name="Trazado 903714" d="M28.329,250.157l-12.417,3.807-5.353-20.1L7.5,222.4,19.92,218.59l3.055,11.466Z" transform="translate(-7.504 -194.131)" fill="#dd636e"/>
        <path id="Trazado_903715" data-name="Trazado 903715" d="M22.974,230.056l-12.416,3.807L7.5,222.4,19.92,218.59Z" transform="translate(-7.504 -194.131)" fill="#cb5769"/>
      </g>
      <g id="Grupo_1112487" data-name="Grupo 1112487" transform="translate(0)">
        <path id="Trazado_903716" data-name="Trazado 903716" d="M72.85,80.751a6.255,6.255,0,0,0-1.266-.976,6.213,6.213,0,0,0-2.888-11,6.212,6.212,0,0,0-4.668-10.312H59.686q-.8-.586-1.655-1.106l.652-2.016q.625.187,1.249.372a4.423,4.423,0,0,0,1.25.181,4.276,4.276,0,0,0,4.079-2.957l.02-.063a4.292,4.292,0,0,0-2.7-5.367c-4.035-1.426-8.162-2.76-12.268-3.967a4.291,4.291,0,0,0-5.327,2.769l-.022.069a4.292,4.292,0,0,0,2.7,5.367q.613.217,1.23.43l-.6,1.868a23.923,23.923,0,0,0-5.04-.021,6.94,6.94,0,0,0-9.223-9.308l-8.912,4.246a15.772,15.772,0,0,0-6.671,6A1.094,1.094,0,1,0,20.307,56.1a13.591,13.591,0,0,1,5.748-5.17l8.912-4.245a4.753,4.753,0,0,1,6.062,6.83l-.612.967a23.836,23.836,0,0,0-4.707,44.9H22.76l-8.1-30.392,3.858-9.077a1.094,1.094,0,1,0-2.013-.856L12.7,68.016.773,71.674A1.094,1.094,0,0,0,.037,73l8.409,31.567a1.093,1.093,0,0,0,1.377.764l12.26-3.759H61.09a6.211,6.211,0,0,0,4.745-10.218h2.622a6.212,6.212,0,0,0,4.393-10.6Zm-1.106-5.843A4.023,4.023,0,0,1,69.5,78.519c.008-.26.014-.522.014-.784a23.763,23.763,0,0,0-.98-6.769,4.023,4.023,0,0,1,3.208,3.942Zm-7.715-14.26A4.026,4.026,0,0,1,67.1,67.279a23.956,23.956,0,0,0-4.816-6.631h1.747ZM47.053,47.039l.016-.049A2.14,2.14,0,0,1,49.7,45.637c4.068,1.2,8.158,2.518,12.156,3.931a2.141,2.141,0,0,1,1.34,2.642l-.016.048a2.141,2.141,0,0,1-2.631,1.353c-4.068-1.2-8.158-2.518-12.156-3.931A2.141,2.141,0,0,1,47.053,47.039Zm3.911,5.842q2.8.943,5.626,1.819l-.513,1.588a23.649,23.649,0,0,0-5.6-1.905Zm-40.7,50.027L2.422,73.456l10.324-3.166,7.845,29.452ZM61.09,99.386H55.66A23.723,23.723,0,0,0,58.554,97.8a1.094,1.094,0,0,0-1.184-1.84,21.681,21.681,0,1,1,3.27-2.578,1.094,1.094,0,0,0,1.512,1.581,24.37,24.37,0,0,0,2.021-2.184,4.024,4.024,0,0,1-3.084,6.608Zm7.367-10.218H66.612A23.5,23.5,0,0,0,69.267,81.2a4.024,4.024,0,0,1-.81,7.966Z" transform="translate(0 -43.357)"/>
        <path id="Trazado_903717" data-name="Trazado 903717" d="M204.995,152.39a18.477,18.477,0,1,0,18.477,18.477A18.5,18.5,0,0,0,204.995,152.39Zm9.071,32-.532-.922a1.094,1.094,0,1,0-1.894,1.094l.534.924a16.168,16.168,0,0,1-6.084,1.632v-2.545a1.094,1.094,0,1,0-2.188,0v2.545a16.165,16.165,0,0,1-6.084-1.632l.534-.924a1.094,1.094,0,1,0-1.894-1.094l-.532.922a16.423,16.423,0,0,1-4.453-4.453l.922-.532a1.094,1.094,0,1,0-1.094-1.894l-.924.534a16.168,16.168,0,0,1-1.632-6.084h2.545a1.094,1.094,0,0,0,0-2.188h-2.545a16.167,16.167,0,0,1,1.632-6.084l.924.534a1.094,1.094,0,1,0,1.094-1.894l-.922-.532a16.423,16.423,0,0,1,4.453-4.453l.532.922a1.094,1.094,0,0,0,1.894-1.094l-.534-.924a16.166,16.166,0,0,1,6.084-1.632v2.546a1.094,1.094,0,0,0,2.188,0v-2.546a16.168,16.168,0,0,1,6.084,1.632l-.534.924a1.094,1.094,0,1,0,1.894,1.094l.532-.922a16.422,16.422,0,0,1,4.453,4.453l-.922.532a1.094,1.094,0,1,0,1.094,1.894l.924-.534a16.168,16.168,0,0,1,1.632,6.084H218.7a1.094,1.094,0,1,0,0,2.188h2.545a16.164,16.164,0,0,1-1.632,6.084l-.924-.534a1.094,1.094,0,1,0-1.094,1.894l.922.532A16.423,16.423,0,0,1,214.066,184.39Z" transform="translate(-159.316 -136.489)"/>
        <path id="Trazado_903718" data-name="Trazado 903718" d="M293.834,217.627a3.312,3.312,0,0,0-3.308,3.308v5.654a3.308,3.308,0,0,0,6.617,0v-5.654A3.312,3.312,0,0,0,293.834,217.627Zm1.121,8.963a1.121,1.121,0,0,1-2.242,0v-5.654a1.121,1.121,0,0,1,2.242,0Z" transform="translate(-248.156 -192.212)"/>
      </g>
    </g>
  </g>
</svg>
