<svg xmlns="http://www.w3.org/2000/svg" xmlns:xlink="http://www.w3.org/1999/xlink" width="108.914" height="108.914" viewBox="0 0 108.914 108.914">
  <defs>
    <filter id="Trazado_874925" x="0" y="0" width="108.914" height="108.914" filterUnits="userSpaceOnUse">
      <feOffset dy="3" input="SourceAlpha"/>
      <feGaussianBlur stdDeviation="3" result="blur"/>
      <feFlood flood-opacity="0.161"/>
      <feComposite operator="in" in2="blur"/>
      <feComposite in="SourceGraphic"/>
    </filter>
  </defs>
  <g id="Grupo_1112591" data-name="Grupo 1112591" transform="translate(-799.5 -9446.211)">
    <g transform="matrix(1, 0, 0, 1, 799.5, 9446.21)" filter="url(#Trazado_874925)">
      <g id="Trazado_874925-2" data-name="Trazado 874925" transform="translate(9 6)" fill="#94dab2" opacity="0.859">
        <path d="M 45.45676803588867 89.41407012939453 C 39.52198028564453 89.41407012939453 33.76551818847656 88.25206756591797 28.34726715087891 85.96034240722656 C 23.11311721801758 83.74648284912109 18.41204261779785 80.57682800292969 14.37464332580566 76.5394287109375 C 10.33724308013916 72.50202941894531 7.167593002319336 67.80095672607422 4.953730583190918 62.56679534912109 C 2.662005424499512 57.14855575561523 1.500005483627319 51.39208221435547 1.500005483627319 45.45729446411133 C 1.500005483627319 39.52198028564453 2.662005424499512 33.76551818847656 4.953730583190918 28.34726905822754 C 7.167593002319336 23.11310577392578 10.33724308013916 18.41203117370605 14.37464332580566 14.37464332580566 C 18.41204261779785 10.33724403381348 23.11311721801758 7.167593955993652 28.34726715087891 4.953731060028076 C 33.76551818847656 2.662006139755249 39.52198028564453 1.500006198883057 45.45676803588867 1.500006198883057 C 51.39155578613281 1.500006198883057 57.14802932739258 2.662006139755249 62.56626892089844 4.953731060028076 C 67.80043029785156 7.167593955993652 72.50150299072266 10.33724403381348 76.53890228271484 14.37464332580566 C 80.57630920410156 18.41203117370605 83.74595642089844 23.11310577392578 85.95981597900391 28.34726905822754 C 88.25154113769531 33.76551818847656 89.41354370117188 39.52198028564453 89.41354370117188 45.45676803588867 C 89.41354370117188 51.39208221435547 88.25154113769531 57.14855575561523 85.95981597900391 62.56679534912109 C 83.74595642089844 67.80095672607422 80.57630920410156 72.50202941894531 76.53890228271484 76.5394287109375 C 72.50150299072266 80.57682800292969 67.80043029785156 83.74648284912109 62.56626892089844 85.96034240722656 C 57.14802932739258 88.25206756591797 51.39155578613281 89.41407012939453 45.45676803588867 89.41407012939453 Z" stroke="none"/>
        <path d="M 45.45676803588867 3 C 39.72381210327148 3 34.1639404296875 4.12213134765625 28.93159484863281 6.335227966308594 C 23.87622833251953 8.473472595214844 19.33542633056641 11.53517150878906 15.43529510498047 15.435302734375 C 11.53517150878906 19.33543395996094 8.473464965820312 23.87622833251953 6.335227966308594 28.93160247802734 C 4.122123718261719 34.16394424438477 3 39.72381591796875 3 45.4572868347168 C 3 51.19024658203125 4.122123718261719 56.75011825561523 6.335227966308594 61.98246002197266 C 8.473464965820312 67.03782653808594 11.53517150878906 71.57862854003906 15.43529510498047 75.478759765625 C 19.33542633056641 79.37889099121094 23.87622833251953 82.44058990478516 28.93159484863281 84.57883453369141 C 34.1639404296875 86.79193115234375 39.72381210327148 87.9140625 45.45676803588867 87.9140625 C 51.18972396850586 87.9140625 56.74959564208984 86.79193115234375 61.98194122314453 84.57883453369141 C 67.03730773925781 82.44058990478516 71.57810974121094 79.37889099121094 75.47824096679688 75.478759765625 C 79.37837219238281 71.57862854003906 82.44007110595703 67.03782653808594 84.57830810546875 61.98246002197266 C 86.79141235351562 56.75011825561523 87.91353607177734 51.19024658203125 87.91353607177734 45.4567756652832 C 87.91353607177734 39.72381591796875 86.79141235351562 34.16394424438477 84.57830810546875 28.93160247802734 C 82.44007110595703 23.87622833251953 79.37837219238281 19.33543395996094 75.47824096679688 15.435302734375 C 71.57810974121094 11.53517150878906 67.03730773925781 8.473472595214844 61.98194122314453 6.335227966308594 C 56.74959564208984 4.12213134765625 51.18972396850586 3 45.45676803588867 3 M 45.45676803588867 0 C 70.56185150146484 0 90.91353607177734 20.35169219970703 90.91353607177734 45.4567756652832 L 90.91353607177734 45.4572868347168 C 90.91353607177734 70.5623779296875 70.56185150146484 90.9140625 45.45676803588867 90.9140625 C 20.3516845703125 90.9140625 0 70.5623779296875 0 45.4572868347168 L 0 45.4567756652832 C 0 20.35169219970703 20.3516845703125 0 45.45676803588867 0 Z" stroke="none" fill="#fff"/>
      </g>
    </g>
    <g id="Grupo_1112535" data-name="Grupo 1112535" transform="translate(825.907 9471.387)">
      <path id="Trazado_903733" data-name="Trazado 903733" d="M91.8,258.787v6.333l-44.85,1.8v-6.113a4.312,4.312,0,0,1,4.313-4.313h9.132a19.714,19.714,0,0,0,8.691-2.019,19.716,19.716,0,0,1,8.689-2.018h7.694a6.33,6.33,0,0,1,6.331,6.331Zm0,0" transform="translate(-41.805 -224.349)" fill="#a46244"/>
      <path id="Trazado_903734" data-name="Trazado 903734" d="M91.8,295.088v2.355l-44.85,1.8V297.08a4.313,4.313,0,0,1,4.313-4.285h9.132a19.714,19.714,0,0,0,8.691-2.019,19.71,19.71,0,0,1,8.689-2.018h7.694a6.33,6.33,0,0,1,6.331,6.331Zm0,0" transform="translate(-41.805 -256.672)" fill="#8c482c"/>
      <path id="Trazado_903735" data-name="Trazado 903735" d="M91.8,316.567a6.331,6.331,0,0,1-6.331,6.331H51.262a4.313,4.313,0,1,1,0-8.625h9.132a19.715,19.715,0,0,0,8.691-2.019,19.711,19.711,0,0,1,8.689-2.019h7.694a6.331,6.331,0,0,1,6.331,6.333Zm0,0" transform="translate(-41.805 -275.795)" fill="#fe835f"/>
      <path id="Trazado_903736" data-name="Trazado 903736" d="M336.124,319.843a6.331,6.331,0,0,1-6.331,6.331H321.34c10.2-3.768,10.851-9.874,10.68-12.26a6.335,6.335,0,0,1,4.1,5.929Zm0,0" transform="translate(-286.13 -279.071)" fill="#f66853"/>
      <path id="Trazado_903737" data-name="Trazado 903737" d="M61.958,415.928v2.965a1.193,1.193,0,0,1-1.192,1.193H8.692A1.193,1.193,0,0,1,7.5,418.893v-2.965a1.192,1.192,0,0,1,1.192-1.193H60.766A1.192,1.192,0,0,1,61.958,415.928Zm0,0" transform="translate(-6.679 -368.845)" fill="#eea97c"/>
      <path id="Trazado_903738" data-name="Trazado 903738" d="M247.417,415.928v2.965a1.193,1.193,0,0,1-1.192,1.193H215.781l12.739-5.352h17.705A1.192,1.192,0,0,1,247.417,415.928Zm0,0" transform="translate(-192.137 -368.845)" fill="#df9563"/>
      <g id="Grupo_1112534" data-name="Grupo 1112534" transform="translate(20.198 1.322)">
        <path id="Trazado_903739" data-name="Trazado 903739" d="M240.3,61.652l-9.29,9.29a1.371,1.371,0,0,0,.97,2.341,8.313,8.313,0,0,0,5.878-2.435l9.2-9.2Zm0,0" transform="translate(-225.531 -55.773)" fill="#ffb38d"/>
        <path id="Trazado_903740" data-name="Trazado 903740" d="M219.756,45.915l-9.29,9.29a1.372,1.372,0,0,0,.97,2.342,8.313,8.313,0,0,0,5.878-2.435l9.2-9.2h-6.755Zm0,0" transform="translate(-207.242 -41.76)" fill="#ffb38d"/>
        <path id="Trazado_903741" data-name="Trazado 903741" d="M219.351,8H197.584a4.027,4.027,0,0,0-2.847,1.179l-10,10a1.372,1.372,0,0,0,.97,2.342,8.311,8.311,0,0,0,5.878-2.435l3.927-3.926a4.024,4.024,0,0,1,2.847-1.18h3.363L196.6,19.1a2.574,2.574,0,0,0,1.82,4.394,6.091,6.091,0,0,0,4.307-1.784l3.554-3.554h.81a4.139,4.139,0,0,0,2.927-1.213l9.331-.151V8Zm0,0" transform="translate(-184.332 -8)" fill="#ffb38d"/>
      </g>
      <path id="Trazado_903742" data-name="Trazado 903742" d="M178.593,250.6a.822.822,0,0,0,.817.747c.025,0,.051,0,.076,0a20.459,20.459,0,0,0,7.176-2.016,18.831,18.831,0,0,1,6.471-1.841.822.822,0,1,0-.162-1.635,20.456,20.456,0,0,0-7.033,2,18.821,18.821,0,0,1-6.6,1.854A.822.822,0,0,0,178.593,250.6Zm0,0" transform="translate(-159.021 -218.459)"/>
      <path id="Trazado_903743" data-name="Trazado 903743" d="M54.087,262.735H49.381a7.109,7.109,0,0,0,1.434-4.3v-6.332a7.162,7.162,0,0,0-7.154-7.154H37.776a.822.822,0,1,0,0,1.644h5.886a5.516,5.516,0,0,1,5.51,5.51v1.775a7.142,7.142,0,0,0-5.51-2.6H35.969a20.647,20.647,0,0,0-9.052,2.1,18.994,18.994,0,0,1-8.327,1.935H9.457A5.116,5.116,0,0,0,5.966,256.7v-2.571a3.5,3.5,0,0,1,3.491-3.491h7.188a.822.822,0,1,0,0-1.644H9.457a5.141,5.141,0,0,0-5.135,5.135v6.332a5.129,5.129,0,0,0,.533,2.278H2.014A2.017,2.017,0,0,0,0,264.749v2.966a2.017,2.017,0,0,0,2.014,2.014H7.879a.822.822,0,0,0,0-1.644H2.014a.371.371,0,0,1-.371-.371v-2.966a.371.371,0,0,1,.371-.371H54.087a.371.371,0,0,1,.371.371v2.966a.371.371,0,0,1-.371.371H11.624a.822.822,0,0,0,0,1.644H54.087a2.017,2.017,0,0,0,2.014-2.014v-2.966a2.017,2.017,0,0,0-2.014-2.014ZM5.965,260.457a3.5,3.5,0,0,1,3.491-3.491h9.132a20.646,20.646,0,0,0,9.052-2.1,19,19,0,0,1,8.327-1.934h7.694a5.509,5.509,0,0,1,3.446,9.807H6.813a3.485,3.485,0,0,1-.847-2.278Zm0,0" transform="translate(0 -217.667)"/>
      <path id="Trazado_903744" data-name="Trazado 903744" d="M248.622,347.633l-3.105,3.105a.822.822,0,0,0,1.163,1.162l3.105-3.105a.822.822,0,0,0-1.163-1.162Zm0,0" transform="translate(-218.4 -308.882)"/>
      <path id="Trazado_903745" data-name="Trazado 903745" d="M304.123,332.805a.822.822,0,0,0-1.162,0l-4.73,4.73a.822.822,0,0,0,1.162,1.162l4.73-4.73A.822.822,0,0,0,304.123,332.805Zm0,0" transform="translate(-265.339 -295.679)"/>
      <path id="Trazado_903746" data-name="Trazado 903746" d="M336.438,347.633l-3.105,3.105a.822.822,0,0,0,1.162,1.162L337.6,348.8a.822.822,0,0,0-1.162-1.162Zm0,0" transform="translate(-296.594 -308.882)"/>
      <path id="Trazado_903747" data-name="Trazado 903747" d="M187.124,380.043h-.017a.822.822,0,0,0,0,1.644h.016a.822.822,0,0,0,0-1.644Zm0,0" transform="translate(-165.874 -337.955)"/>
      <path id="Trazado_903748" data-name="Trazado 903748" d="M166.26,370.527h-.016a.822.822,0,0,0,0,1.644h.016a.822.822,0,0,0,0-1.644Zm0,0" transform="translate(-147.296 -329.482)"/>
      <path id="Trazado_903749" data-name="Trazado 903749" d="M76.287,381.1h-.016a.822.822,0,0,0,0,1.644h.016a.822.822,0,0,0,0-1.644Zm0,0" transform="translate(-67.182 -338.898)"/>
      <path id="Trazado_903750" data-name="Trazado 903750" d="M179,15.665c.209,0,.416-.009.622-.024a2.219,2.219,0,0,0,.17.935,2.159,2.159,0,0,0,2.027,1.354l.105,0a2.229,2.229,0,0,0,.472.955,2.151,2.151,0,0,0,1.674.772,9.069,9.069,0,0,0,6.132-2.364,3.426,3.426,0,0,0,1.513.347,6.868,6.868,0,0,0,4.888-2.025l3.313-3.313h.47a4.925,4.925,0,0,0,3.256-1.218l9.015-.146a.822.822,0,0,0-.013-1.644h-.014l-9.331.151a.823.823,0,0,0-.568.241,3.3,3.3,0,0,1-2.346.972h-.811A.821.821,0,0,0,199,10.9l-3.554,3.554a5.233,5.233,0,0,1-3.726,1.543,1.754,1.754,0,0,1-1.475-2.7L198,5.482a.822.822,0,0,0-1.162-1.162l-2.161,2.161h-3.023a4.817,4.817,0,0,0-3.428,1.42L184.3,11.827a7.44,7.44,0,0,1-5.3,2.194.55.55,0,0,1-.389-.939l10-10a3.184,3.184,0,0,1,2.266-.939h21.767a.822.822,0,0,0,0-1.644H190.881a4.815,4.815,0,0,0-3.428,1.42l-10,10A2.193,2.193,0,0,0,179,15.665Zm9.578-.124a3.533,3.533,0,0,0,.364.667,7.433,7.433,0,0,1-4.872,1.8.52.52,0,0,1-.416-.187.607.607,0,0,1-.048-.068,9.073,9.073,0,0,0,4.672-2.5l.152-.152A3.588,3.588,0,0,0,188.582,15.541Zm-3.119-2.552,3.926-3.927a3.183,3.183,0,0,1,2.266-.938h1.379l-5.914,5.968a7.442,7.442,0,0,1-5.3,2.194.55.55,0,0,1-.389-.939l.014-.015a9.082,9.082,0,0,0,4.015-2.344Zm0,0" transform="translate(-157.432)"/>
      <path id="Trazado_903751" data-name="Trazado 903751" d="M47.165,95.789a3,3,0,1,0,0,6.009.822.822,0,1,0,0-1.644,1.361,1.361,0,0,1,0-2.722,3,3,0,0,0,0-6.009,1.361,1.361,0,0,1,0-2.722,3,3,0,0,0,0-6.009.822.822,0,1,0,0,1.644,1.361,1.361,0,0,1,0,2.722,3,3,0,1,0,0,6.009,1.361,1.361,0,0,1,0,2.722Zm0,0" transform="translate(-39.322 -73.185)"/>
      <path id="Trazado_903752" data-name="Trazado 903752" d="M117.626,48.321a3,3,0,0,0,0,6.009.822.822,0,0,0,0-1.644,1.361,1.361,0,1,1,0-2.722,3,3,0,0,0,0-6.009,1.361,1.361,0,1,1,0-2.722,3.008,3.008,0,0,0,3-3,.822.822,0,1,0-1.644,0,1.362,1.362,0,0,1-1.361,1.361,3,3,0,1,0,0,6.009,1.361,1.361,0,1,1,0,2.722Zm0,0" transform="translate(-102.062 -32.862)"/>
      <path id="Trazado_903753" data-name="Trazado 903753" d="M424.935,148.084a3,3,0,0,0,0-6.009.822.822,0,1,0,0,1.644,1.361,1.361,0,1,1,0,2.722,3,3,0,1,0,0,6.009,1.362,1.362,0,0,1,1.361,1.361.822.822,0,1,0,1.644,0,3.008,3.008,0,0,0-3-3,1.361,1.361,0,0,1,0-2.722Zm0,0" transform="translate(-375.698 -126.061)"/>
      <path id="Trazado_903754" data-name="Trazado 903754" d="M253.736,184.908h-.012a.822.822,0,0,0,.011,1.644h.024a.822.822,0,0,0-.022-1.643Zm0,0" transform="translate(-225.201 -164.201)"/>
      <path id="Trazado_903755" data-name="Trazado 903755" d="M253.8,212.043h-.027a.822.822,0,0,0,.015,1.643h.027a.822.822,0,0,0-.015-1.643Zm0,0" transform="translate(-225.249 -188.363)"/>
      <path id="Trazado_903756" data-name="Trazado 903756" d="M210.839,188.71h.012a.822.822,0,0,0-.011-1.644h-.023a.822.822,0,0,0,.011,1.644Zm0,0" transform="translate(-186.996 -166.123)"/>
      <path id="Trazado_903757" data-name="Trazado 903757" d="M228.307,228.874h.012a.822.822,0,0,0-.015-1.644h-.027a.822.822,0,0,0,.015,1.644Zm0,0" transform="translate(-202.546 -201.886)"/>
    </g>
  </g>
</svg>
