<svg xmlns="http://www.w3.org/2000/svg" xmlns:xlink="http://www.w3.org/1999/xlink" width="108.914" height="108.914" viewBox="0 0 108.914 108.914">
  <defs>
    <filter id="Trazado_874925" x="0" y="0" width="108.914" height="108.914" filterUnits="userSpaceOnUse">
      <feOffset dy="3" input="SourceAlpha"/>
      <feGaussianBlur stdDeviation="3" result="blur"/>
      <feFlood flood-opacity="0.161"/>
      <feComposite operator="in" in2="blur"/>
      <feComposite in="SourceGraphic"/>
    </filter>
  </defs>
  <g id="Grupo_1112594" data-name="Grupo 1112594" transform="translate(-1113.825 -9446.211)">
    <g transform="matrix(1, 0, 0, 1, 1113.82, 9446.21)" filter="url(#Trazado_874925)">
      <g id="Trazado_874925-2" data-name="Trazado 874925" transform="translate(9 6)" fill="#94dab2" opacity="0.859">
        <path d="M 45.45676803588867 89.41407012939453 C 39.52198028564453 89.41407012939453 33.76551818847656 88.25206756591797 28.34726715087891 85.96034240722656 C 23.11311721801758 83.74648284912109 18.41204261779785 80.57682800292969 14.37464332580566 76.5394287109375 C 10.33724308013916 72.50202941894531 7.167593002319336 67.80095672607422 4.953730583190918 62.56679534912109 C 2.662005424499512 57.14855575561523 1.500005483627319 51.39208221435547 1.500005483627319 45.45729446411133 C 1.500005483627319 39.52198028564453 2.662005424499512 33.76551818847656 4.953730583190918 28.34726905822754 C 7.167593002319336 23.11310577392578 10.33724308013916 18.41203117370605 14.37464332580566 14.37464332580566 C 18.41204261779785 10.33724403381348 23.11311721801758 7.167593955993652 28.34726715087891 4.953731060028076 C 33.76551818847656 2.662006139755249 39.52198028564453 1.500006198883057 45.45676803588867 1.500006198883057 C 51.39155578613281 1.500006198883057 57.14802932739258 2.662006139755249 62.56626892089844 4.953731060028076 C 67.80043029785156 7.167593955993652 72.50150299072266 10.33724403381348 76.53890228271484 14.37464332580566 C 80.57630920410156 18.41203117370605 83.74595642089844 23.11310577392578 85.95981597900391 28.34726905822754 C 88.25154113769531 33.76551818847656 89.41354370117188 39.52198028564453 89.41354370117188 45.45676803588867 C 89.41354370117188 51.39208221435547 88.25154113769531 57.14855575561523 85.95981597900391 62.56679534912109 C 83.74595642089844 67.80095672607422 80.57630920410156 72.50202941894531 76.53890228271484 76.5394287109375 C 72.50150299072266 80.57682800292969 67.80043029785156 83.74648284912109 62.56626892089844 85.96034240722656 C 57.14802932739258 88.25206756591797 51.39155578613281 89.41407012939453 45.45676803588867 89.41407012939453 Z" stroke="none"/>
        <path d="M 45.45676803588867 3 C 39.72381210327148 3 34.1639404296875 4.12213134765625 28.93159484863281 6.335227966308594 C 23.87622833251953 8.473472595214844 19.33542633056641 11.53517150878906 15.43529510498047 15.435302734375 C 11.53517150878906 19.33543395996094 8.473464965820312 23.87622833251953 6.335227966308594 28.93160247802734 C 4.122123718261719 34.16394424438477 3 39.72381591796875 3 45.4572868347168 C 3 51.19024658203125 4.122123718261719 56.75011825561523 6.335227966308594 61.98246002197266 C 8.473464965820312 67.03782653808594 11.53517150878906 71.57862854003906 15.43529510498047 75.478759765625 C 19.33542633056641 79.37889099121094 23.87622833251953 82.44058990478516 28.93159484863281 84.57883453369141 C 34.1639404296875 86.79193115234375 39.72381210327148 87.9140625 45.45676803588867 87.9140625 C 51.18972396850586 87.9140625 56.74959564208984 86.79193115234375 61.98194122314453 84.57883453369141 C 67.03730773925781 82.44058990478516 71.57810974121094 79.37889099121094 75.47824096679688 75.478759765625 C 79.37837219238281 71.57862854003906 82.44007110595703 67.03782653808594 84.57830810546875 61.98246002197266 C 86.79141235351562 56.75011825561523 87.91353607177734 51.19024658203125 87.91353607177734 45.4567756652832 C 87.91353607177734 39.72381591796875 86.79141235351562 34.16394424438477 84.57830810546875 28.93160247802734 C 82.44007110595703 23.87622833251953 79.37837219238281 19.33543395996094 75.47824096679688 15.435302734375 C 71.57810974121094 11.53517150878906 67.03730773925781 8.473472595214844 61.98194122314453 6.335227966308594 C 56.74959564208984 4.12213134765625 51.18972396850586 3 45.45676803588867 3 M 45.45676803588867 0 C 70.56185150146484 0 90.91353607177734 20.35169219970703 90.91353607177734 45.4567756652832 L 90.91353607177734 45.4572868347168 C 90.91353607177734 70.5623779296875 70.56185150146484 90.9140625 45.45676803588867 90.9140625 C 20.3516845703125 90.9140625 0 70.5623779296875 0 45.4572868347168 L 0 45.4567756652832 C 0 20.35169219970703 20.3516845703125 0 45.45676803588867 0 Z" stroke="none" fill="#fff"/>
      </g>
    </g>
    <g id="Grupo_1112539" data-name="Grupo 1112539" transform="translate(1115.815 9468.5)">
      <g id="Grupo_1112537" data-name="Grupo 1112537" transform="translate(26.892 1.126)">
        <path id="Trazado_903758" data-name="Trazado 903758" d="M374.69,75.539c1.8,4.425-.3,6.739,3.581,11.1,1.144-2,2.776-3.782,4.128-5.811q.287-.43.535-.851C376.478,69.26,373.57,72.789,374.69,75.539Z" transform="translate(-335.911 -65.544)" fill="#ff9eb1" fill-rule="evenodd"/>
        <path id="Trazado_903759" data-name="Trazado 903759" d="M291.943,30.978c-3.881-4.363-1.779-6.677-3.581-11.1-1.12-2.751,1.788-6.28,8.243,4.44,1.879-3.175,2.145-5.9,1.308-8.106-1.977-5.2-10.111-7.475-17.7-5.771-1.048.235-2.113.519-3.185.851,8.449,8.506,1.862,15.3,13.364,24.267.113-.612.251-1.242.421-1.892A11.017,11.017,0,0,1,291.943,30.978Z" transform="translate(-249.584 -9.881)" fill="#ffe0e6" fill-rule="evenodd"/>
        <path id="Trazado_903760" data-name="Trazado 903760" d="M181.921,46.517c-11.5-8.966-4.915-15.761-13.364-24.267a47.131,47.131,0,0,0-13.95,7.059c2.778,8.062,10.385,9.772,14.829,20.027s4.814,5.475,10.526,12.437a18.126,18.126,0,0,0,.78-2.038,22.4,22.4,0,0,0,.674-6.668,36.472,36.472,0,0,1,.5-6.551Z" transform="translate(-141.116 -20.841)" fill="#ff9eb1" fill-rule="evenodd"/>
        <path id="Trazado_903761" data-name="Trazado 903761" d="M79.565,104.226C75.121,93.971,67.515,92.261,64.737,84.2a41.118,41.118,0,0,0-4.458,3.815c2.217,2.217,2.487,5.212,3.8,7.208,1.56,2.373,3.991,3.687,4.53,5.535,1.607,5.516-.7,8.188-3.186,4.964-4.017-5.213-8.8-6.153-9.591-12.348A29.921,29.921,0,0,0,53.6,97.318q-.221.472-.42.947c8.482,22.67,17.72,13.777,21.69,29.206a22.779,22.779,0,0,0,7-2.279c-3.6-8.134-1.253-12.194,6.372-5.377a17.355,17.355,0,0,0,1.851-3.15C84.379,109.7,84.009,114.482,79.565,104.226Z" transform="translate(-51.245 -75.73)" fill="#ffe0e6" fill-rule="evenodd"/>
        <g id="Grupo_1112536" data-name="Grupo 1112536" transform="translate(0 12.284)">
          <path id="Trazado_903762" data-name="Trazado 903762" d="M89.223,130.424c-.539-1.849-2.97-3.163-4.53-5.535-1.312-2-1.581-4.991-3.8-7.208a34.807,34.807,0,0,0-4.448,5.36c.788,6.194,5.574,7.135,9.591,12.348C88.521,138.611,90.83,135.94,89.223,130.424Z" transform="translate(-71.861 -117.68)" fill="#ff9eb1" fill-rule="evenodd"/>
          <path id="Trazado_903763" data-name="Trazado 903763" d="M298.452,369.9c-7.624-6.817-9.976-2.757-6.371,5.377A18.548,18.548,0,0,0,298.452,369.9Z" transform="translate(-261.457 -338.101)" fill="#ff9eb1" fill-rule="evenodd"/>
          <path id="Trazado_903764" data-name="Trazado 903764" d="M59.829,236.835c-3.97-15.428-13.208-6.536-21.69-29.206a22.91,22.91,0,0,0,.542,19.61,18.037,18.037,0,0,0,11.424,9.154,24.025,24.025,0,0,0,9.723.442Z" transform="translate(-36.205 -197.379)" fill="#ff9eb1" fill-rule="evenodd"/>
        </g>
        <path id="Trazado_903765" data-name="Trazado 903765" d="M86.087,309.932a22.779,22.779,0,0,1-7,2.279,24.028,24.028,0,0,1-9.723-.442,18.037,18.037,0,0,1-11.424-9.153c10.605,22.513,44.875,16.655,37.824-9.916a22.4,22.4,0,0,1-.674,6.668,18.143,18.143,0,0,1-.78,2.038,17.364,17.364,0,0,1-1.851,3.15A18.551,18.551,0,0,1,86.087,309.932Z" transform="translate(-55.463 -260.472)" fill="#ff5d7d" fill-rule="evenodd"/>
        <path id="Trazado_903766" data-name="Trazado 903766" d="M390.38,84.778a36.475,36.475,0,0,0-.5,6.551c3.39-10.236,14.049-10.231,8.029-25.9.837,2.2.57,4.931-1.308,8.106q-.248.42-.535.851c-1.352,2.029-2.984,3.814-4.128,5.811a11.008,11.008,0,0,0-1.132,2.688C390.631,83.536,390.493,84.166,390.38,84.778Z" transform="translate(-349.575 -59.101)" fill="#ff5d7d" fill-rule="evenodd"/>
      </g>
      <g id="Grupo_1112538" data-name="Grupo 1112538" transform="translate(25.694 0)">
        <path id="Trazado_903767" data-name="Trazado 903767" d="M259.066,220.012a1.14,1.14,0,0,0,0-2.279h0A1.14,1.14,0,0,0,259.066,220.012Z" transform="translate(-231.469 -192.922)"/>
        <path id="Trazado_903768" data-name="Trazado 903768" d="M73.223,26.044c3.7-4.166,7.2-8.1,3.125-18.832C73.9,1,65.483-1.15,57.27.573c-18.945,4-38.892,23.394-28.915,43.218,4.881,10.88,17.423,17.13,28.724,13.517,9.52-3.075,13.713-12.051,11.727-22a4.811,4.811,0,0,1,.245-3.511,25.01,25.01,0,0,1,4.173-5.754Zm-1.7-1.514a40,40,0,0,0-2.866,3.494,25.014,25.014,0,0,1,.567-2.824A16.76,16.76,0,0,1,72.5,19.552a25.22,25.22,0,0,0,3.331-5.233C76.282,19.169,74.1,21.627,71.52,24.53Zm-13.459,24.4C56.655,45.311,56.873,43.384,57.4,43c.4-.292,1.923-.132,4.9,2.342A17.535,17.535,0,0,1,58.061,48.931ZM69.149,20.26a8.38,8.38,0,0,1-1.428-4.753,14.7,14.7,0,0,0-.995-4.815,1.294,1.294,0,0,1-.006-1.255c.085-.042.606-.036,1.6.773a21.558,21.558,0,0,1,4.256,5.348C71.514,17.2,70.252,18.653,69.149,20.26ZM57.769,2.8C63.088,1.451,70.92,2.656,73.5,6.608c1.268,1.845,1.365,4.11.309,6.646a21.663,21.663,0,0,0-4.048-4.811C67.824,6.868,66.483,7.007,65.7,7.4c-1.313.659-1.778,2.443-1.083,4.151,1.637,4.218-.164,6.562,3.266,10.817a11.487,11.487,0,0,0-.865,2.254L67,24.684c-8.581-7.44-3.955-13.571-10.614-21.549q.7-.184,1.382-.338Zm-21.9,12.317c1.327,1.871,1.675,4.256,2.9,6.13a17.324,17.324,0,0,0,2.512,2.868,6.743,6.743,0,0,1,1.876,2.36c.884,3.034.36,4.707-.007,4.893-.043.022-.486-.041-1.182-.944a29.963,29.963,0,0,0-4.609-4.611c-2.314-1.974-4.153-3.542-4.692-6.762a33.179,33.179,0,0,1,3.2-3.934ZM31.041,21.69c1.026,2.6,2.892,4.192,4.842,5.855a27.7,27.7,0,0,1,4.283,4.268,3.83,3.83,0,0,0,2.968,1.827c2.881-.166,3.355-3.839,2.215-7.805a8.229,8.229,0,0,0-2.471-3.353,15.3,15.3,0,0,1-2.2-2.49,13.048,13.048,0,0,1-1.118-2.45,15.283,15.283,0,0,0-2.051-4.052q1.15-1.073,2.383-2.053c2.175,4.818,6.089,7.422,9.454,11.189a1.14,1.14,0,0,0,1.7-1.523c-1.1-1.226-2.213-2.3-3.289-3.344-2.5-2.417-4.672-4.524-5.987-7.731A46.661,46.661,0,0,1,53.972,3.853c7.5,8.3,1.617,14.652,12.5,23.362a40.966,40.966,0,0,0-.419,6.443,19.535,19.535,0,0,1-.688,6.233,17.222,17.222,0,0,0-3.928-3.24c-1.531-.963-2.542-1.6-4.785-6.594a1.139,1.139,0,0,0-2.079.934c2.408,5.362,3.655,6.333,5.65,7.589a15.926,15.926,0,0,1,4.168,3.643q-.34.665-.734,1.285c-2.232-1.887-5.591-3.875-7.6-2.348-1.763,1.283-1.761,4.482-.02,8.846a21.835,21.835,0,0,1-4.764,1.546c-4.6-14.918-13.582-7.051-21.187-27.929.293-.657.614-1.3.957-1.934Zm-2.127,5.146C36.532,45.3,45.217,39.434,49,51.9a22.55,22.55,0,0,1-7.917-.577A16.841,16.841,0,0,1,30.388,42.76l-.024-.046A21.3,21.3,0,0,1,28.914,26.836ZM56.376,55.141a19.065,19.065,0,0,1-5.867.9A21.643,21.643,0,0,1,40.4,53.5l.105.028A25.194,25.194,0,0,0,56.4,52.372,19.519,19.519,0,0,0,66.881,42.288,14.917,14.917,0,0,1,56.376,55.141Z" transform="translate(-25.694 0)"/>
      </g>
    </g>
  </g>
</svg>
