<svg xmlns="http://www.w3.org/2000/svg" xmlns:xlink="http://www.w3.org/1999/xlink" width="108.914" height="108.914" viewBox="0 0 108.914 108.914">
  <defs>
    <filter id="Trazado_874925" x="0" y="0" width="108.914" height="108.914" filterUnits="userSpaceOnUse">
      <feOffset dy="3" input="SourceAlpha"/>
      <feGaussianBlur stdDeviation="3" result="blur"/>
      <feFlood flood-opacity="0.161"/>
      <feComposite operator="in" in2="blur"/>
      <feComposite in="SourceGraphic"/>
    </filter>
  </defs>
  <g id="Grupo_1112595" data-name="Grupo 1112595" transform="translate(6898.55 2161.789)">
    <g transform="matrix(1, 0, 0, 1, -6898.55, -2161.79)" filter="url(#Trazado_874925)">
      <g id="Trazado_874925-2" data-name="Trazado 874925" transform="translate(9 6)" fill="#94dab2" opacity="0.859">
        <path d="M 45.45676803588867 89.41407012939453 C 39.52198028564453 89.41407012939453 33.76551818847656 88.25206756591797 28.34726715087891 85.96034240722656 C 23.11311721801758 83.74648284912109 18.41204261779785 80.57682800292969 14.37464332580566 76.5394287109375 C 10.33724308013916 72.50202941894531 7.167593002319336 67.80095672607422 4.953730583190918 62.56679534912109 C 2.662005424499512 57.14855575561523 1.500005483627319 51.39208221435547 1.500005483627319 45.45729446411133 C 1.500005483627319 39.52198028564453 2.662005424499512 33.76551818847656 4.953730583190918 28.34726905822754 C 7.167593002319336 23.11310577392578 10.33724308013916 18.41203117370605 14.37464332580566 14.37464332580566 C 18.41204261779785 10.33724403381348 23.11311721801758 7.167593955993652 28.34726715087891 4.953731060028076 C 33.76551818847656 2.662006139755249 39.52198028564453 1.500006198883057 45.45676803588867 1.500006198883057 C 51.39155578613281 1.500006198883057 57.14802932739258 2.662006139755249 62.56626892089844 4.953731060028076 C 67.80043029785156 7.167593955993652 72.50150299072266 10.33724403381348 76.53890228271484 14.37464332580566 C 80.57630920410156 18.41203117370605 83.74595642089844 23.11310577392578 85.95981597900391 28.34726905822754 C 88.25154113769531 33.76551818847656 89.41354370117188 39.52198028564453 89.41354370117188 45.45676803588867 C 89.41354370117188 51.39208221435547 88.25154113769531 57.14855575561523 85.95981597900391 62.56679534912109 C 83.74595642089844 67.80095672607422 80.57630920410156 72.50202941894531 76.53890228271484 76.5394287109375 C 72.50150299072266 80.57682800292969 67.80043029785156 83.74648284912109 62.56626892089844 85.96034240722656 C 57.14802932739258 88.25206756591797 51.39155578613281 89.41407012939453 45.45676803588867 89.41407012939453 Z" stroke="none"/>
        <path d="M 45.45676803588867 3 C 39.72381210327148 3 34.1639404296875 4.12213134765625 28.93159484863281 6.335227966308594 C 23.87622833251953 8.473472595214844 19.33542633056641 11.53517150878906 15.43529510498047 15.435302734375 C 11.53517150878906 19.33543395996094 8.473464965820312 23.87622833251953 6.335227966308594 28.93160247802734 C 4.122123718261719 34.16394424438477 3 39.72381591796875 3 45.4572868347168 C 3 51.19024658203125 4.122123718261719 56.75011825561523 6.335227966308594 61.98246002197266 C 8.473464965820312 67.03782653808594 11.53517150878906 71.57862854003906 15.43529510498047 75.478759765625 C 19.33542633056641 79.37889099121094 23.87622833251953 82.44058990478516 28.93159484863281 84.57883453369141 C 34.1639404296875 86.79193115234375 39.72381210327148 87.9140625 45.45676803588867 87.9140625 C 51.18972396850586 87.9140625 56.74959564208984 86.79193115234375 61.98194122314453 84.57883453369141 C 67.03730773925781 82.44058990478516 71.57810974121094 79.37889099121094 75.47824096679688 75.478759765625 C 79.37837219238281 71.57862854003906 82.44007110595703 67.03782653808594 84.57830810546875 61.98246002197266 C 86.79141235351562 56.75011825561523 87.91353607177734 51.19024658203125 87.91353607177734 45.4567756652832 C 87.91353607177734 39.72381591796875 86.79141235351562 34.16394424438477 84.57830810546875 28.93160247802734 C 82.44007110595703 23.87622833251953 79.37837219238281 19.33543395996094 75.47824096679688 15.435302734375 C 71.57810974121094 11.53517150878906 67.03730773925781 8.473472595214844 61.98194122314453 6.335227966308594 C 56.74959564208984 4.12213134765625 51.18972396850586 3 45.45676803588867 3 M 45.45676803588867 0 C 70.56185150146484 0 90.91353607177734 20.35169219970703 90.91353607177734 45.4567756652832 L 90.91353607177734 45.4572868347168 C 90.91353607177734 70.5623779296875 70.56185150146484 90.9140625 45.45676803588867 90.9140625 C 20.3516845703125 90.9140625 0 70.5623779296875 0 45.4572868347168 L 0 45.4567756652832 C 0 20.35169219970703 20.3516845703125 0 45.45676803588867 0 Z" stroke="none" fill="#fff"/>
      </g>
    </g>
    <g id="Beef" transform="translate(-6874.745 -2143.782)">
      <path id="Trazado_903769" data-name="Trazado 903769" d="M19.786,88.647c-8.892,0-13.9-1.942-15.75-6.112v-9.6a.876.876,0,0,0,0-.094,2.875,2.875,0,0,1,.688-2.049c1.075-1.338,3.206-2.1,6.331-2.274,7.488-.408,12.954-1.227,15-2.247.282-.141.586-.3.913-.476a16.956,16.956,0,0,1,8.026-2.456q.2,0,.408.007c15.058.524,23.694,3.55,23.694,8.3V82.535A6.476,6.476,0,0,1,54.4,85.988a115.448,115.448,0,0,1-21.249,2.1c-1.607.005-3.526.123-5.557.247-2.417.147-5.137.313-7.8.313Z" transform="translate(-1.079 -30.193)" fill="#805333"/>
      <path id="Trazado_903770" data-name="Trazado 903770" d="M29.237,78.6c-5.516,0-10.831-.235-15.8-.7a15.036,15.036,0,0,1-9.4-4.409v-.559a.876.876,0,0,0,0-.094,2.875,2.875,0,0,1,.688-2.049c1.075-1.338,3.206-2.1,6.331-2.274,7.488-.408,12.954-1.227,15-2.247.282-.141.586-.3.913-.476a16.956,16.956,0,0,1,8.026-2.456q.2,0,.408.007c15.058.524,23.694,3.55,23.694,8.3V73.09a16.657,16.657,0,0,1-6.036,3.052c-6.158,1.922-12.782,2.242-18.507,2.391C32.757,78.58,30.971,78.6,29.237,78.6Z" transform="translate(-1.079 -30.193)" fill="#cb8252"/>
      <path id="Trazado_903771" data-name="Trazado 903771" d="M97.079,19.662c1.015,1.377,1.326,1.933.826,2.767a.918.918,0,0,0,1.574.945c1.175-1.958.012-3.535-.923-4.8a6.591,6.591,0,0,1-1.418-2.707c-.371-2.226,1.861-3.4,1.967-3.456a.918.918,0,1,0-.824-1.641c-.145.073-3.551,1.82-2.954,5.4a8.113,8.113,0,0,0,1.751,3.5Z" transform="translate(-50.434 -1.7)"/>
      <path id="Trazado_903772" data-name="Trazado 903772" d="M58.508,16.52c1.016,1.377,1.326,1.933.826,2.767a.918.918,0,0,0,1.574.945c1.175-1.958.012-3.535-.923-4.8a6.594,6.594,0,0,1-1.418-2.707c-.372-2.23,1.87-3.406,1.968-3.456a.918.918,0,1,0-.825-1.641c-.145.073-3.55,1.82-2.954,5.4a8.112,8.112,0,0,0,1.752,3.5Z" transform="translate(-29.568)"/>
      <path id="Trazado_903773" data-name="Trazado 903773" d="M19.936,26.662c1.016,1.377,1.326,1.933.826,2.767a.918.918,0,0,0,1.574.944c1.175-1.958.012-3.535-.923-4.8A6.593,6.593,0,0,1,20,22.865c-.371-2.226,1.861-3.4,1.967-3.456a.918.918,0,0,0-.824-1.641c-.145.073-3.55,1.82-2.954,5.4a8.115,8.115,0,0,0,1.751,3.5Z" transform="translate(-8.702 -5.487)"/>
      <path id="Trazado_903774" data-name="Trazado 903774" d="M34.34,61.35a17.3,17.3,0,0,0-8.9,2.557c-.321.17-.62.326-.9.464-1.9.955-7.376,1.758-14.634,2.153-3.4.184-5.752,1.065-7,2.616a3.933,3.933,0,0,0-.886,2.153V81.456a.878.878,0,0,0,.083.372c2.451,5.522,9.506,6.656,16.589,6.656,2.7,0,5.4-.165,7.858-.312,2.02-.124,3.929-.243,5.5-.248A116.333,116.333,0,0,0,53.514,85.8,7.413,7.413,0,0,0,58.857,81.8a.968.968,0,0,0,.064-.34V70.568C58.921,63.292,43.521,61.672,34.34,61.35Zm22.744,9.217v1.008a10.256,10.256,0,0,1-1.442.974L47.8,64.706c5.4,1.18,9.285,3.072,9.285,5.861Zm-8.393,4.419L44.7,70.861c1.405-.442,2.428-1.2,2.428-2.314,0-1.914-3.016-2.786-5.819-2.786a13.341,13.341,0,0,0-1.468.082l-2.42-2.5c2.464.161,4.9.415,7.186.771L53.892,73.4c-.786.324-1.55.584-2.2.788-.988.308-1.991.571-3,.8ZM41.311,67.6c2.313,0,3.678.634,3.953.95-.275.316-1.64.95-3.953.95s-3.678-.634-3.953-.95C37.633,68.232,39,67.6,41.311,67.6Zm-7.035-4.411.451.018,3,3.093c-1.3.45-2.232,1.189-2.232,2.25,0,1.915,3.016,2.786,5.819,2.786.409,0,.822-.021,1.23-.059l4.012,4.147c-1.93.348-3.87.583-5.781.746l-11.9-11.9a12.587,12.587,0,0,1,5.4-1.083Zm-8.9,2.828c.289-.142.6-.308.936-.487.255-.136.523-.278.8-.423L38.346,76.341c-1.685.1-3.332.153-4.91.194-.445.012-.885.017-1.328.026l-9.622-9.626a13.342,13.342,0,0,0,2.885-.92ZM22.9,76.529,14.421,68.05c2.247-.193,4.218-.429,5.882-.7l9.249,9.245q-3.383.024-6.652-.066ZM10.017,68.355c.684-.037,1.343-.078,1.99-.122l8.2,8.2q-3.618-.157-7.053-.462L6.238,69.047a12.7,12.7,0,0,1,3.779-.692ZM4,70.914a2.183,2.183,0,0,1,.385-.668,2.979,2.979,0,0,1,.221-.233L10.1,75.5a14.071,14.071,0,0,1-6.232-3.482A3.106,3.106,0,0,1,4,70.914Zm49.105,13.1a116.112,116.112,0,0,1-21.046,2.075c-1.63,0-3.562.124-5.609.248-8.276.51-19.582,1.2-22.584-5.081V74.437a15.805,15.805,0,0,0,8.4,3.3c5.012.468,10.337.7,15.887.7,1.753,0,3.534-.023,5.329-.069,5.788-.151,12.485-.477,18.76-2.433a21.317,21.317,0,0,0,4.843-2.111v7.422a5.777,5.777,0,0,1-3.98,2.763Z" transform="translate(0 -29.112)"/>
    </g>
  </g>
</svg>
