<svg xmlns="http://www.w3.org/2000/svg" xmlns:xlink="http://www.w3.org/1999/xlink" width="108.914" height="108.914" viewBox="0 0 108.914 108.914">
  <defs>
    <filter id="Trazado_874925" x="0" y="0" width="108.914" height="108.914" filterUnits="userSpaceOnUse">
      <feOffset dy="3" input="SourceAlpha"/>
      <feGaussianBlur stdDeviation="3" result="blur"/>
      <feFlood flood-opacity="0.161"/>
      <feComposite operator="in" in2="blur"/>
      <feComposite in="SourceGraphic"/>
    </filter>
    <clipPath id="clip-path">
      <path id="path5442" d="M0-682.665H55.336v55.336H0Z" transform="translate(0 682.665)"/>
    </clipPath>
  </defs>
  <g id="Grupo_1112596" data-name="Grupo 1112596" transform="translate(6584.226 2161.789)">
    <g transform="matrix(1, 0, 0, 1, -6584.23, -2161.79)" filter="url(#Trazado_874925)">
      <g id="Trazado_874925-2" data-name="Trazado 874925" transform="translate(9 6)" fill="#94dab2" opacity="0.859">
        <path d="M 45.45676803588867 89.41407012939453 C 39.52198028564453 89.41407012939453 33.76551818847656 88.25206756591797 28.34726715087891 85.96034240722656 C 23.11311721801758 83.74648284912109 18.41204261779785 80.57682800292969 14.37464332580566 76.5394287109375 C 10.33724308013916 72.50202941894531 7.167593002319336 67.80095672607422 4.953730583190918 62.56679534912109 C 2.662005424499512 57.14855575561523 1.500005483627319 51.39208221435547 1.500005483627319 45.45729446411133 C 1.500005483627319 39.52198028564453 2.662005424499512 33.76551818847656 4.953730583190918 28.34726905822754 C 7.167593002319336 23.11310577392578 10.33724308013916 18.41203117370605 14.37464332580566 14.37464332580566 C 18.41204261779785 10.33724403381348 23.11311721801758 7.167593955993652 28.34726715087891 4.953731060028076 C 33.76551818847656 2.662006139755249 39.52198028564453 1.500006198883057 45.45676803588867 1.500006198883057 C 51.39155578613281 1.500006198883057 57.14802932739258 2.662006139755249 62.56626892089844 4.953731060028076 C 67.80043029785156 7.167593955993652 72.50150299072266 10.33724403381348 76.53890228271484 14.37464332580566 C 80.57630920410156 18.41203117370605 83.74595642089844 23.11310577392578 85.95981597900391 28.34726905822754 C 88.25154113769531 33.76551818847656 89.41354370117188 39.52198028564453 89.41354370117188 45.45676803588867 C 89.41354370117188 51.39208221435547 88.25154113769531 57.14855575561523 85.95981597900391 62.56679534912109 C 83.74595642089844 67.80095672607422 80.57630920410156 72.50202941894531 76.53890228271484 76.5394287109375 C 72.50150299072266 80.57682800292969 67.80043029785156 83.74648284912109 62.56626892089844 85.96034240722656 C 57.14802932739258 88.25206756591797 51.39155578613281 89.41407012939453 45.45676803588867 89.41407012939453 Z" stroke="none"/>
        <path d="M 45.45676803588867 3 C 39.72381210327148 3 34.1639404296875 4.12213134765625 28.93159484863281 6.335227966308594 C 23.87622833251953 8.473472595214844 19.33542633056641 11.53517150878906 15.43529510498047 15.435302734375 C 11.53517150878906 19.33543395996094 8.473464965820312 23.87622833251953 6.335227966308594 28.93160247802734 C 4.122123718261719 34.16394424438477 3 39.72381591796875 3 45.4572868347168 C 3 51.19024658203125 4.122123718261719 56.75011825561523 6.335227966308594 61.98246002197266 C 8.473464965820312 67.03782653808594 11.53517150878906 71.57862854003906 15.43529510498047 75.478759765625 C 19.33542633056641 79.37889099121094 23.87622833251953 82.44058990478516 28.93159484863281 84.57883453369141 C 34.1639404296875 86.79193115234375 39.72381210327148 87.9140625 45.45676803588867 87.9140625 C 51.18972396850586 87.9140625 56.74959564208984 86.79193115234375 61.98194122314453 84.57883453369141 C 67.03730773925781 82.44058990478516 71.57810974121094 79.37889099121094 75.47824096679688 75.478759765625 C 79.37837219238281 71.57862854003906 82.44007110595703 67.03782653808594 84.57830810546875 61.98246002197266 C 86.79141235351562 56.75011825561523 87.91353607177734 51.19024658203125 87.91353607177734 45.4567756652832 C 87.91353607177734 39.72381591796875 86.79141235351562 34.16394424438477 84.57830810546875 28.93160247802734 C 82.44007110595703 23.87622833251953 79.37837219238281 19.33543395996094 75.47824096679688 15.435302734375 C 71.57810974121094 11.53517150878906 67.03730773925781 8.473472595214844 61.98194122314453 6.335227966308594 C 56.74959564208984 4.12213134765625 51.18972396850586 3 45.45676803588867 3 M 45.45676803588867 0 C 70.56185150146484 0 90.91353607177734 20.35169219970703 90.91353607177734 45.4567756652832 L 90.91353607177734 45.4572868347168 C 90.91353607177734 70.5623779296875 70.56185150146484 90.9140625 45.45676803588867 90.9140625 C 20.3516845703125 90.9140625 0 70.5623779296875 0 45.4572868347168 L 0 45.4567756652832 C 0 20.35169219970703 20.3516845703125 0 45.45676803588867 0 Z" stroke="none" fill="#fff"/>
      </g>
    </g>
    <g id="g5436" transform="translate(-6558.938 -1455.335)">
      <g id="g5438" transform="translate(0 -682.665)">
        <g id="g5440" clip-path="url(#clip-path)">
          <g id="g5446" transform="translate(1.081 34.801)">
            <path id="path5448" d="M0,0V6.485c0,7.162,7.259,12.969,16.212,12.969a19.471,19.471,0,0,0,7.52-1.476l4.459-1.872a46.93,46.93,0,0,1,16.877-3.136c4.477,0,8.106-2.9,8.106-6.485V0Z" fill="#ffddcf"/>
          </g>
          <g id="g5450" transform="translate(1.081 21.727)">
            <path id="path5452" d="M-575.55-95.954c-9.037-5.581-20.739-8.5-31.318-8.464l-6.471.363h0c-7.4,1.2-12.979,6.434-12.979,12.711,0,7.162,7.258,12.969,16.212,12.969a19.472,19.472,0,0,0,7.52-1.476l4.459-1.872a46.93,46.93,0,0,1,16.878-3.136c4.477,0,8.106-2.9,8.106-6.485a5.906,5.906,0,0,0-2.406-4.611" transform="translate(626.318 104.418)" fill="#ff7b79"/>
          </g>
          <g id="g5454" transform="translate(41.286 2.702)">
            <path id="path5456" d="M-91.894,0A4.864,4.864,0,0,1-87.03,4.864a4.864,4.864,0,0,1-4.864,4.864,4.834,4.834,0,0,1-2.014-.436,12.984,12.984,0,0,0-5.378-1.186H-100V1.621h.714A12.984,12.984,0,0,0-93.907.436,4.834,4.834,0,0,1-91.894,0" transform="translate(100)" fill="#ff7b79"/>
          </g>
          <g id="g5458" transform="translate(27.668 4.323)">
            <path id="path5460" d="M-154.382,0V6.485H-168L-161.515,0Z" transform="translate(168)" fill="#eefaff"/>
          </g>
          <g id="g5462" transform="translate(17.941 4.323)">
            <path id="path5464" d="M-183.788,0l-6.485,6.485h-3.242L-200,3.242-193.515,0Z" transform="translate(200)" fill="#99ebfa"/>
          </g>
          <g id="g5466" transform="translate(10.808 31.559)">
            <path id="path5468" d="M-73.515,0c3.582,0,6.485,1.451,6.485,3.242s-2.9,3.242-6.485,3.242S-80,5.033-80,3.242-77.1,0-73.515,0" transform="translate(80 0)" fill="#ffddcf"/>
          </g>
          <g id="g5470" transform="translate(14.05 15.347)">
            <path id="path5472" d="M-73.478-72.327a3.239,3.239,0,0,1-3.239,3.347,3.243,3.243,0,0,1-3.242-3.242c0-1.791,3.242-6.485,3.242-6.485s3.12,4.518,3.239,6.38" transform="translate(79.96 78.706)" fill="#99ebfa"/>
          </g>
          <g id="g5474" transform="translate(1.081 34.801)">
            <path id="path5476" d="M0,0V6.485c0,7.162,7.259,12.969,16.212,12.969a19.473,19.473,0,0,0,7.52-1.476l4.459-1.872a46.93,46.93,0,0,1,16.877-3.136c4.477,0,8.106-2.9,8.106-6.485V0" fill="none" stroke="#000" stroke-linecap="round" stroke-linejoin="round" stroke-miterlimit="10" stroke-width="2"/>
          </g>
          <g id="g5478" transform="translate(10.808 31.559)">
            <path id="path5480" d="M-147.03-36.758c0,1.791-2.9,3.242-6.485,3.242S-160-34.967-160-36.758-157.1-40-153.515-40-147.03-38.548-147.03-36.758Z" transform="translate(160 40)" fill="none" stroke="#000" stroke-linecap="round" stroke-linejoin="round" stroke-miterlimit="10" stroke-width="2"/>
          </g>
          <g id="g5482" transform="translate(14.05 15.347)">
            <path id="path5484" d="M-73.478-72.327c0,.036,0,.071,0,.1a3.242,3.242,0,0,1-3.242,3.242,3.242,3.242,0,0,1-3.232-2.984c-.007-.085-.011-.172-.011-.258,0-1.791,3.242-6.485,3.242-6.485S-73.6-74.189-73.478-72.327Z" transform="translate(79.96 78.706)" fill="none" stroke="#000" stroke-linecap="round" stroke-linejoin="round" stroke-miterlimit="10" stroke-width="2"/>
          </g>
          <g id="g5486" transform="translate(41.286 1.081)">
            <path id="path5488" d="M0,0V12.969" fill="none" stroke="#000" stroke-linecap="round" stroke-linejoin="round" stroke-miterlimit="10" stroke-width="2"/>
          </g>
          <g id="g5490" transform="translate(17.941 2.702)">
            <path id="path5492" d="M-264.654-18.379h.714a12.984,12.984,0,0,0,5.378-1.186A4.834,4.834,0,0,1-256.549-20a4.864,4.864,0,0,1,4.863,4.864,4.864,4.864,0,0,1-4.863,4.864,4.834,4.834,0,0,1-2.014-.436,12.984,12.984,0,0,0-5.378-1.186h-17.575L-288-15.136l6.485-3.242h16.86Z" transform="translate(287.999 20)" fill="none" stroke="#000" stroke-linecap="round" stroke-linejoin="round" stroke-miterlimit="10" stroke-width="2"/>
          </g>
          <g id="g5494" transform="translate(27.668 4.323)">
            <path id="path5496" d="M-73.515,0-80,6.485" transform="translate(80)" fill="none" stroke="#000" stroke-linecap="round" stroke-linejoin="round" stroke-miterlimit="10" stroke-width="2"/>
          </g>
          <g id="g5498" transform="translate(36.314 22.913)">
            <path id="path5500" d="M-12.253-24.505a1.081,1.081,0,0,1-1.081-1.081,1.081,1.081,0,0,1,1.081-1.081,1.081,1.081,0,0,1,1.081,1.081,1.081,1.081,0,0,1-1.081,1.081" transform="translate(13.333 26.667)"/>
          </g>
          <g id="g5502" transform="translate(1.081 22.09)">
            <path id="path5504" d="M-147.141,0c-7.4,1.2-12.979,6.434-12.979,12.711,0,7.162,7.259,12.969,16.212,12.969a19.473,19.473,0,0,0,7.52-1.476l4.459-1.872A46.93,46.93,0,0,1-115.051,19.2c4.477,0,8.106-2.9,8.106-6.485A5.906,5.906,0,0,0-109.351,8.1a53.3,53.3,0,0,0-9.827-4.7" transform="translate(160.12)" fill="none" stroke="#000" stroke-linecap="round" stroke-linejoin="round" stroke-miterlimit="10" stroke-width="2"/>
          </g>
          <g id="g5506" transform="translate(20.532 21.727)">
            <path id="path5508" d="M-137.432-13.375a62.392,62.392,0,0,0-12.123-1.179" transform="translate(149.554 14.555)" fill="none" stroke="#000" stroke-linecap="round" stroke-linejoin="round" stroke-miterlimit="10" stroke-width="2"/>
          </g>
        </g>
      </g>
    </g>
  </g>
</svg>
