<svg xmlns="http://www.w3.org/2000/svg" xmlns:xlink="http://www.w3.org/1999/xlink" width="108.914" height="108.914" viewBox="0 0 108.914 108.914">
  <defs>
    <filter id="Trazado_874925" x="0" y="0" width="108.914" height="108.914" filterUnits="userSpaceOnUse">
      <feOffset dy="3" input="SourceAlpha"/>
      <feGaussianBlur stdDeviation="3" result="blur"/>
      <feFlood flood-opacity="0.161"/>
      <feComposite operator="in" in2="blur"/>
      <feComposite in="SourceGraphic"/>
    </filter>
    <clipPath id="clip-path">
      <path id="path6597" d="M0-682.665H52.221v52.221H0Z" transform="translate(0 682.665)"/>
    </clipPath>
  </defs>
  <g id="Grupo_1112597" data-name="Grupo 1112597" transform="translate(6270 2162)">
    <g transform="matrix(1, 0, 0, 1, -6270, -2162)" filter="url(#Trazado_874925)">
      <g id="Trazado_874925-2" data-name="Trazado 874925" transform="translate(9 6)" fill="#94dab2" opacity="0.859">
        <path d="M 45.45676803588867 89.41407012939453 C 39.52198028564453 89.41407012939453 33.76551818847656 88.25206756591797 28.34726715087891 85.96034240722656 C 23.11311721801758 83.74648284912109 18.41204261779785 80.57682800292969 14.37464332580566 76.5394287109375 C 10.33724308013916 72.50202941894531 7.167593002319336 67.80095672607422 4.953730583190918 62.56679534912109 C 2.662005424499512 57.14855575561523 1.500005483627319 51.39208221435547 1.500005483627319 45.45729446411133 C 1.500005483627319 39.52198028564453 2.662005424499512 33.76551818847656 4.953730583190918 28.34726905822754 C 7.167593002319336 23.11310577392578 10.33724308013916 18.41203117370605 14.37464332580566 14.37464332580566 C 18.41204261779785 10.33724403381348 23.11311721801758 7.167593955993652 28.34726715087891 4.953731060028076 C 33.76551818847656 2.662006139755249 39.52198028564453 1.500006198883057 45.45676803588867 1.500006198883057 C 51.39155578613281 1.500006198883057 57.14802932739258 2.662006139755249 62.56626892089844 4.953731060028076 C 67.80043029785156 7.167593955993652 72.50150299072266 10.33724403381348 76.53890228271484 14.37464332580566 C 80.57630920410156 18.41203117370605 83.74595642089844 23.11310577392578 85.95981597900391 28.34726905822754 C 88.25154113769531 33.76551818847656 89.41354370117188 39.52198028564453 89.41354370117188 45.45676803588867 C 89.41354370117188 51.39208221435547 88.25154113769531 57.14855575561523 85.95981597900391 62.56679534912109 C 83.74595642089844 67.80095672607422 80.57630920410156 72.50202941894531 76.53890228271484 76.5394287109375 C 72.50150299072266 80.57682800292969 67.80043029785156 83.74648284912109 62.56626892089844 85.96034240722656 C 57.14802932739258 88.25206756591797 51.39155578613281 89.41407012939453 45.45676803588867 89.41407012939453 Z" stroke="none"/>
        <path d="M 45.45676803588867 3 C 39.72381210327148 3 34.1639404296875 4.12213134765625 28.93159484863281 6.335227966308594 C 23.87622833251953 8.473472595214844 19.33542633056641 11.53517150878906 15.43529510498047 15.435302734375 C 11.53517150878906 19.33543395996094 8.473464965820312 23.87622833251953 6.335227966308594 28.93160247802734 C 4.122123718261719 34.16394424438477 3 39.72381591796875 3 45.4572868347168 C 3 51.19024658203125 4.122123718261719 56.75011825561523 6.335227966308594 61.98246002197266 C 8.473464965820312 67.03782653808594 11.53517150878906 71.57862854003906 15.43529510498047 75.478759765625 C 19.33542633056641 79.37889099121094 23.87622833251953 82.44058990478516 28.93159484863281 84.57883453369141 C 34.1639404296875 86.79193115234375 39.72381210327148 87.9140625 45.45676803588867 87.9140625 C 51.18972396850586 87.9140625 56.74959564208984 86.79193115234375 61.98194122314453 84.57883453369141 C 67.03730773925781 82.44058990478516 71.57810974121094 79.37889099121094 75.47824096679688 75.478759765625 C 79.37837219238281 71.57862854003906 82.44007110595703 67.03782653808594 84.57830810546875 61.98246002197266 C 86.79141235351562 56.75011825561523 87.91353607177734 51.19024658203125 87.91353607177734 45.4567756652832 C 87.91353607177734 39.72381591796875 86.79141235351562 34.16394424438477 84.57830810546875 28.93160247802734 C 82.44007110595703 23.87622833251953 79.37837219238281 19.33543395996094 75.47824096679688 15.435302734375 C 71.57810974121094 11.53517150878906 67.03730773925781 8.473472595214844 61.98194122314453 6.335227966308594 C 56.74959564208984 4.12213134765625 51.18972396850586 3 45.45676803588867 3 M 45.45676803588867 0 C 70.56185150146484 0 90.91353607177734 20.35169219970703 90.91353607177734 45.4567756652832 L 90.91353607177734 45.4572868347168 C 90.91353607177734 70.5623779296875 70.56185150146484 90.9140625 45.45676803588867 90.9140625 C 20.3516845703125 90.9140625 0 70.5623779296875 0 45.4572868347168 L 0 45.4567756652832 C 0 20.35169219970703 20.3516845703125 0 45.45676803588867 0 Z" stroke="none" fill="#fff"/>
      </g>
    </g>
    <g id="g6591" transform="translate(-6242 -1453.335)">
      <g id="g6593" transform="translate(0 -682.665)">
        <g id="g6595" clip-path="url(#clip-path)">
          <g id="g6601" transform="translate(6.528 13.404)">
            <path id="path6603" d="M-49.888,0H-39.43a1.99,1.99,0,0,1,1.884,1.347l1.435,4.2a4.361,4.361,0,0,1-.037,2.923l-1.5,4.054a8.142,8.142,0,0,0-.31,4.6l.669,2.992a20.507,20.507,0,0,1,.494,4.473v2.484a5.13,5.13,0,0,1-3.818,4.959h0a5.132,5.132,0,0,1-1.951.13l-3.874-.487-1.5,6.118h-4.284V32.663h0a19.332,19.332,0,0,1-1.8-8.15v-2.1a2.512,2.512,0,0,1,.906-1.931l.961-.8a2.512,2.512,0,0,0,.854-2.439l-.528-2.557a2.51,2.51,0,0,1-.052-.508V1.99A1.99,1.99,0,0,1-49.888,0" transform="translate(54.02)" fill="#ffb9b7"/>
          </g>
          <g id="g6605" transform="translate(33.292 13.404)">
            <path id="path6607" d="M-169.142,0H-179.6a1.99,1.99,0,0,0-1.884,1.347l-1.435,4.2a4.361,4.361,0,0,0,.037,2.923l1.5,4.054a8.142,8.142,0,0,1,.31,4.6l-.669,2.992a20.507,20.507,0,0,0-.494,4.473v2.484a5.13,5.13,0,0,0,3.818,4.959h0a5.132,5.132,0,0,0,1.951.13l3.874-.487,1.5,6.118h4.284V32.663l-.06-3.944V22.05a5.321,5.321,0,0,0-.282-1.709l-.424-1.25a5.32,5.32,0,0,1,.011-3.45l.123-.355a5.32,5.32,0,0,0,.293-1.74V1.99A1.99,1.99,0,0,0-169.142,0" transform="translate(183.152)" fill="#ffdfe0"/>
          </g>
          <g id="g6609" transform="translate(1.02 1.02)">
            <path id="path6611" d="M-250.577-49.253h29.425v-4.08h-50.181v4.08h20.756Z" transform="translate(271.333 53.333)" fill="#c9f3ff"/>
          </g>
          <g id="g6613" transform="translate(1.02 1.02)">
            <path id="path6615" d="M-288.543,0h-23.9V4.08h23.918" transform="translate(312.443)" fill="none" stroke="#000" stroke-linecap="round" stroke-linejoin="round" stroke-miterlimit="10" stroke-width="2"/>
          </g>
          <g id="g6617" transform="translate(21.776 1.02)">
            <path id="path6619" d="M0-49.253H29.425v-4.08H11.3" transform="translate(0 53.333)" fill="none" stroke="#000" stroke-linecap="round" stroke-linejoin="round" stroke-miterlimit="10" stroke-width="2"/>
          </g>
          <g id="g6621" transform="translate(6.528 13.404)">
            <path id="path6623" d="M-49.888,0H-39.43a1.99,1.99,0,0,1,1.884,1.347l1.435,4.2a4.361,4.361,0,0,1-.037,2.923l-1.5,4.054a8.142,8.142,0,0,0-.31,4.6l.669,2.992a20.507,20.507,0,0,1,.494,4.473v2.484a5.13,5.13,0,0,1-3.818,4.959h0a5.132,5.132,0,0,1-1.951.13l-3.874-.487-1.5,6.118h-4.284V32.663h0a19.332,19.332,0,0,1-1.8-8.15v-2.1a2.512,2.512,0,0,1,.906-1.931l.961-.8a2.512,2.512,0,0,0,.854-2.439l-.528-2.557a2.51,2.51,0,0,1-.052-.508V1.99A1.99,1.99,0,0,1-49.888,0Z" transform="translate(54.02)" fill="none" stroke="#000" stroke-linecap="round" stroke-linejoin="round" stroke-miterlimit="10" stroke-width="2"/>
          </g>
          <g id="g6625" transform="translate(12.613 18.461)">
            <path id="path6627" d="M0,0V7.416" fill="none" stroke="#000" stroke-linecap="round" stroke-linejoin="round" stroke-miterlimit="10" stroke-width="2"/>
          </g>
          <g id="g6629" transform="translate(12.613 29.955)">
            <path id="path6631" d="M0,0H0" fill="none" stroke="#000" stroke-linecap="round" stroke-linejoin="round" stroke-miterlimit="10" stroke-width="2"/>
          </g>
          <g id="g6633" transform="translate(16.285 5.1)">
            <path id="path6635" d="M0-26.268v-2.176" transform="translate(0 28.444)" fill="none" stroke="#000" stroke-linecap="round" stroke-linejoin="round" stroke-miterlimit="10" stroke-width="2"/>
          </g>
          <g id="g6637" transform="translate(16.285 10.879)">
            <path id="path6639" d="M0-26.268v-2.176" transform="translate(0 28.444)" fill="none" stroke="#000" stroke-linecap="round" stroke-linejoin="round" stroke-miterlimit="10" stroke-width="2"/>
          </g>
          <g id="g6641" transform="translate(33.292 13.404)">
            <path id="path6643" d="M-169.142,0H-179.6a1.99,1.99,0,0,0-1.884,1.347l-1.435,4.2a4.361,4.361,0,0,0,.037,2.923l1.5,4.054a8.142,8.142,0,0,1,.31,4.6l-.669,2.992a20.507,20.507,0,0,0-.494,4.473v2.484a5.13,5.13,0,0,0,3.818,4.959h0a5.132,5.132,0,0,0,1.951.13l3.874-.487,1.5,6.118h4.284V32.663l-.06-3.944V22.05a5.321,5.321,0,0,0-.282-1.709l-.424-1.25a5.32,5.32,0,0,1,.011-3.45l.123-.355a5.32,5.32,0,0,0,.293-1.74V1.99A1.99,1.99,0,0,0-169.142,0Z" transform="translate(183.152)" fill="none" stroke="#000" stroke-linecap="round" stroke-linejoin="round" stroke-miterlimit="10" stroke-width="2"/>
          </g>
          <g id="g6645" transform="translate(41.677 5.1)">
            <path id="path6647" d="M0-26.268v-2.176" transform="translate(0 28.444)" fill="none" stroke="#000" stroke-linecap="round" stroke-linejoin="round" stroke-miterlimit="10" stroke-width="2"/>
          </g>
          <g id="g6649" transform="translate(41.677 10.879)">
            <path id="path6651" d="M0-26.268v-2.176" transform="translate(0 28.444)" fill="none" stroke="#000" stroke-linecap="round" stroke-linejoin="round" stroke-miterlimit="10" stroke-width="2"/>
          </g>
          <g id="g6653" transform="translate(43.942 19.379)">
            <path id="path6655" d="M-63.97,0h-5.3" transform="translate(69.269)" fill="none" stroke="#000" stroke-linecap="round" stroke-linejoin="round" stroke-miterlimit="10" stroke-width="2"/>
          </g>
          <g id="g6657" transform="translate(42.225 24.784)">
            <path id="path6659" d="M-84.7,0H-91.71" transform="translate(91.71)" fill="none" stroke="#000" stroke-linecap="round" stroke-linejoin="round" stroke-miterlimit="10" stroke-width="2"/>
          </g>
          <g id="g6661" transform="translate(41.462 30.19)">
            <path id="path6663" d="M-80.632,0H-87.31" transform="translate(87.31)" fill="none" stroke="#000" stroke-linecap="round" stroke-linejoin="round" stroke-miterlimit="10" stroke-width="2"/>
          </g>
          <g id="g6665" transform="translate(43.942 35.596)">
            <path id="path6667" d="M-63.97,0h-5.3" transform="translate(69.269)" fill="none" stroke="#000" stroke-linecap="round" stroke-linejoin="round" stroke-miterlimit="10" stroke-width="2"/>
          </g>
          <g id="g6669" transform="translate(29 1.02)">
            <path id="path6671" d="M0,0H0" fill="none" stroke="#000" stroke-linecap="round" stroke-linejoin="round" stroke-miterlimit="10" stroke-width="2"/>
          </g>
        </g>
      </g>
    </g>
  </g>
</svg>
